<svg width="995" height="385" viewBox="0 0 995 385" fill="none" xmlns="http://www.w3.org/2000/svg">
<g clip-path="url(#clip0)" filter="url(#filter0_d)">
<rect width="991" height="380" transform="translate(2)" fill="white"/>
<rect x="176" y="49" width="818" height="331" fill="url(#paint0_linear)"/>
<g clip-path="url(#clip1)">
<path d="M2 51L877 51.0001" stroke="#F0F0F0"/>
<rect width="235" height="28" transform="translate(18 37)" fill="white"/>
<path d="M35.7383 43.9082V58H38.2578V53.3418H41.3145C44.166 53.3418 46.1582 51.4375 46.1582 48.6543C46.1582 45.8223 44.2344 43.9082 41.4219 43.9082H35.7383ZM38.2578 45.9688H40.7578C42.5742 45.9688 43.5996 46.9062 43.5996 48.6543C43.5996 50.3535 42.5449 51.3105 40.748 51.3105H38.2578V45.9688ZM48.6875 58H51.1094V51.7988C51.1094 50.2949 52.2031 49.3184 53.7754 49.3184C54.1855 49.3184 54.8301 49.3867 55.0156 49.4551V47.248C54.791 47.1895 54.3613 47.1504 54.0098 47.1504C52.6328 47.1504 51.4805 47.9316 51.1875 48.9863H51.0215V47.3262H48.6875V58ZM63.6973 55.0801C63.3457 55.8809 62.5156 56.3301 61.3145 56.3301C59.7227 56.3301 58.6973 55.1973 58.6387 53.3906V53.2637H66.0996V52.4922C66.0996 49.1426 64.2734 47.1211 61.2266 47.1211C58.1309 47.1211 56.207 49.2793 56.207 52.707C56.207 56.125 58.1016 58.2148 61.2461 58.2148C63.7656 58.2148 65.5527 57.0039 65.9922 55.0801H63.6973ZM61.2168 49.0059C62.6719 49.0059 63.6289 50.0312 63.6777 51.6523H58.6484C58.7559 50.0508 59.7715 49.0059 61.2168 49.0059ZM73.1211 62.0625C76.2363 62.0625 78.209 60.5098 78.209 58.0586V47.3262H75.875V49.0352H75.709C75.123 47.873 73.8535 47.1504 72.3984 47.1504C69.6738 47.1504 67.9844 49.2793 67.9844 52.5508C67.9844 55.7539 69.6641 57.8438 72.3594 57.8438C73.8438 57.8438 75.0059 57.2188 75.6211 56.0664H75.7871V58.0977C75.7871 59.4551 74.8203 60.2559 73.1602 60.2559C71.832 60.2559 70.9727 59.7773 70.8164 59.0254H68.3848C68.5801 60.8613 70.377 62.0625 73.1211 62.0625ZM73.1211 55.9199C71.4316 55.9199 70.4746 54.6113 70.4746 52.541C70.4746 50.4805 71.4316 49.1719 73.1211 49.1719C74.8008 49.1719 75.8262 50.4805 75.8262 52.5508C75.8262 54.6113 74.8105 55.9199 73.1211 55.9199ZM81.1875 58H83.6094V51.7793C83.6094 50.1777 84.5176 49.1719 85.9629 49.1719C87.4375 49.1719 88.1211 50.002 88.1211 51.6621V58H90.543V51.0957C90.543 48.5566 89.2441 47.1211 86.8613 47.1211C85.2695 47.1211 84.1953 47.8438 83.6875 49.0352H83.5215V47.3262H81.1875V58ZM96.3535 58.1758C97.75 58.1758 98.9219 57.5703 99.5176 56.5352H99.6836V58H102.018V50.7051C102.018 48.4492 100.475 47.1211 97.7305 47.1211C95.1914 47.1211 93.4238 48.3125 93.2285 50.1777H95.5137C95.7383 49.4453 96.5 49.0449 97.6133 49.0449C98.9219 49.0449 99.625 49.6406 99.625 50.7051V51.623L96.8711 51.7891C94.2734 51.9355 92.8184 53.0586 92.8184 54.9727C92.8184 56.9258 94.293 58.1758 96.3535 58.1758ZM97.0664 56.3105C95.9922 56.3105 95.2207 55.7734 95.2207 54.8555C95.2207 53.9668 95.8555 53.4688 97.2129 53.3809L99.625 53.2148V54.084C99.625 55.3535 98.5312 56.3105 97.0664 56.3105ZM104.938 58H107.359V51.7793C107.359 50.1777 108.268 49.1719 109.713 49.1719C111.188 49.1719 111.871 50.002 111.871 51.6621V58H114.293V51.0957C114.293 48.5566 112.994 47.1211 110.611 47.1211C109.02 47.1211 107.945 47.8438 107.438 49.0352H107.271V47.3262H104.938V58ZM126.393 50.8906C126.139 48.6836 124.479 47.1211 121.734 47.1211C118.521 47.1211 116.637 49.1816 116.637 52.6387C116.637 56.1348 118.531 58.2148 121.744 58.2148C124.449 58.2148 126.129 56.7109 126.393 54.5039H124.088C123.834 55.627 122.994 56.2227 121.734 56.2227C120.084 56.2227 119.088 54.9043 119.088 52.6387C119.088 50.4121 120.074 49.1035 121.734 49.1035C123.062 49.1035 123.863 49.8555 124.088 50.8906H126.393ZM129.879 61.8672C132.271 61.8672 133.414 60.998 134.322 58.3711L138.18 47.3262H135.621L133.131 55.7051H132.965L130.465 47.3262H127.809L131.627 58.0391L131.5 58.5371C131.188 59.543 130.611 59.9336 129.586 59.9336C129.42 59.9336 129.059 59.9238 128.922 59.9043V61.8281C129.078 61.8574 129.732 61.8672 129.879 61.8672ZM145.855 43.9082V58H148.375V53.3418H151.432C154.283 53.3418 156.275 51.4375 156.275 48.6543C156.275 45.8223 154.352 43.9082 151.539 43.9082H145.855ZM148.375 45.9688H150.875C152.691 45.9688 153.717 46.9062 153.717 48.6543C153.717 50.3535 152.662 51.3105 150.865 51.3105H148.375V45.9688ZM158.805 58H161.227V51.7988C161.227 50.2949 162.32 49.3184 163.893 49.3184C164.303 49.3184 164.947 49.3867 165.133 49.4551V47.248C164.908 47.1895 164.479 47.1504 164.127 47.1504C162.75 47.1504 161.598 47.9316 161.305 48.9863H161.139V47.3262H158.805V58ZM171.461 58.2148C174.654 58.2148 176.598 56.125 176.598 52.6582C176.598 49.2109 174.645 47.1211 171.461 47.1211C168.287 47.1211 166.324 49.2207 166.324 52.6582C166.324 56.125 168.258 58.2148 171.461 58.2148ZM171.461 56.2324C169.771 56.2324 168.805 54.9238 168.805 52.668C168.805 50.4121 169.771 49.1035 171.461 49.1035C173.141 49.1035 174.107 50.4121 174.107 52.668C174.107 54.9238 173.15 56.2324 171.461 56.2324ZM184.977 58.1758C187.672 58.1758 189.361 56.0566 189.361 52.668C189.361 49.2598 187.682 47.1504 184.977 47.1504C183.512 47.1504 182.281 47.8633 181.725 49.0254H181.559V43.1953H179.137V58H181.471V56.3105H181.637C182.242 57.4824 183.482 58.1758 184.977 58.1758ZM184.215 49.1719C185.865 49.1719 186.871 50.4902 186.871 52.668C186.871 54.8457 185.875 56.1641 184.215 56.1641C182.555 56.1641 181.52 54.8262 181.52 52.668C181.52 50.5098 182.564 49.1719 184.215 49.1719ZM191.891 58H194.312V43.1953H191.891V58ZM204.342 55.0801C203.99 55.8809 203.16 56.3301 201.959 56.3301C200.367 56.3301 199.342 55.1973 199.283 53.3906V53.2637H206.744V52.4922C206.744 49.1426 204.918 47.1211 201.871 47.1211C198.775 47.1211 196.852 49.2793 196.852 52.707C196.852 56.125 198.746 58.2148 201.891 58.2148C204.41 58.2148 206.197 57.0039 206.637 55.0801H204.342ZM201.861 49.0059C203.316 49.0059 204.273 50.0312 204.322 51.6523H199.293C199.4 50.0508 200.416 49.0059 201.861 49.0059ZM209.176 58H211.598V51.5059C211.598 50.1777 212.486 49.1719 213.688 49.1719C214.879 49.1719 215.621 49.8945 215.621 51.0762V58H217.975V51.3301C217.975 50.1094 218.805 49.1719 220.064 49.1719C221.363 49.1719 222.018 49.8652 222.018 51.252V58H224.43V50.6562C224.43 48.4395 223.141 47.1211 221.002 47.1211C219.518 47.1211 218.287 47.8828 217.76 49.0449H217.594C217.145 47.8633 216.119 47.1211 214.645 47.1211C213.229 47.1211 212.135 47.8438 211.676 49.0449H211.51V47.3262H209.176V58ZM227.057 50.373C227.057 51.9746 228.023 52.9121 230.074 53.3809L231.969 53.8203C232.984 54.0547 233.443 54.4453 233.443 55.0508C233.443 55.8613 232.594 56.418 231.373 56.418C230.162 56.418 229.41 55.9297 229.176 55.1387H226.783C226.969 57.0625 228.648 58.2148 231.314 58.2148C233.98 58.2148 235.865 56.8574 235.865 54.8164C235.865 53.2441 234.918 52.375 232.877 51.9062L230.992 51.4863C229.918 51.2324 229.41 50.8516 229.41 50.2461C229.41 49.4551 230.24 48.918 231.344 48.918C232.477 48.918 233.189 49.4062 233.365 50.1582H235.641C235.465 48.2344 233.873 47.1211 231.334 47.1211C228.814 47.1211 227.057 48.459 227.057 50.373Z" fill="#8C8C8C"/>
</g>
<g clip-path="url(#clip2)">
<path d="M2 180L877 180" stroke="#F0F0F0"/>
<rect width="223" height="28" transform="translate(18 166)" fill="white"/>
<path d="M38.248 172.908H35.7285V182.146C35.7285 185.223 37.9551 187.352 41.5195 187.352C45.084 187.352 47.3105 185.223 47.3105 182.146V172.908H44.791V181.922C44.791 183.846 43.6094 185.154 41.5195 185.154C39.4297 185.154 38.248 183.846 38.248 181.922V172.908ZM50.5234 187H52.9453V180.779C52.9453 179.178 53.8535 178.172 55.2988 178.172C56.7734 178.172 57.457 179.002 57.457 180.662V187H59.8789V180.096C59.8789 177.557 58.5801 176.121 56.1973 176.121C54.6055 176.121 53.5312 176.844 53.0234 178.035H52.8574V176.326H50.5234V187ZM66.6172 187.176C68.1016 187.176 69.332 186.482 69.9375 185.311H70.1035V187H72.4473V172.195H70.0254V178.025H69.8594C69.293 176.854 68.082 176.15 66.6172 176.15C63.9219 176.15 62.2227 178.279 62.2227 181.658C62.2227 185.047 63.9121 187.176 66.6172 187.176ZM67.3691 178.172C69.0293 178.172 70.0547 179.51 70.0547 181.668C70.0547 183.836 69.0391 185.164 67.3691 185.164C65.709 185.164 64.7031 183.855 64.7031 181.668C64.7031 179.49 65.7188 178.172 67.3691 178.172ZM82.4668 184.08C82.1152 184.881 81.2852 185.33 80.084 185.33C78.4922 185.33 77.4668 184.197 77.4082 182.391V182.264H84.8691V181.492C84.8691 178.143 83.043 176.121 79.9961 176.121C76.9004 176.121 74.9766 178.279 74.9766 181.707C74.9766 185.125 76.8711 187.215 80.0156 187.215C82.5352 187.215 84.3223 186.004 84.7617 184.08H82.4668ZM79.9863 178.006C81.4414 178.006 82.3984 179.031 82.4473 180.652H77.418C77.5254 179.051 78.541 178.006 79.9863 178.006ZM87.3008 187H89.7227V180.799C89.7227 179.295 90.8164 178.318 92.3887 178.318C92.7988 178.318 93.4434 178.387 93.6289 178.455V176.248C93.4043 176.189 92.9746 176.15 92.623 176.15C91.2461 176.15 90.0938 176.932 89.8008 177.986H89.6348V176.326H87.3008V187ZM95.7188 187H98.1406V172.195H95.7188V187ZM102.379 190.867C104.771 190.867 105.914 189.998 106.822 187.371L110.68 176.326H108.121L105.631 184.705H105.465L102.965 176.326H100.309L104.127 187.039L104 187.537C103.688 188.543 103.111 188.934 102.086 188.934C101.92 188.934 101.559 188.924 101.422 188.904V190.828C101.578 190.857 102.232 190.867 102.379 190.867ZM114 174.539C114.801 174.539 115.455 173.904 115.455 173.104C115.455 172.312 114.801 171.668 114 171.668C113.209 171.668 112.555 172.312 112.555 173.104C112.555 173.904 113.209 174.539 114 174.539ZM112.799 187H115.211V176.326H112.799V187ZM118.219 187H120.641V180.779C120.641 179.178 121.549 178.172 122.994 178.172C124.469 178.172 125.152 179.002 125.152 180.662V187H127.574V180.096C127.574 177.557 126.275 176.121 123.893 176.121C122.301 176.121 121.227 176.844 120.719 178.035H120.553V176.326H118.219V187ZM135.035 191.062C138.15 191.062 140.123 189.51 140.123 187.059V176.326H137.789V178.035H137.623C137.037 176.873 135.768 176.15 134.312 176.15C131.588 176.15 129.898 178.279 129.898 181.551C129.898 184.754 131.578 186.844 134.273 186.844C135.758 186.844 136.92 186.219 137.535 185.066H137.701V187.098C137.701 188.455 136.734 189.256 135.074 189.256C133.746 189.256 132.887 188.777 132.73 188.025H130.299C130.494 189.861 132.291 191.062 135.035 191.062ZM135.035 184.92C133.346 184.92 132.389 183.611 132.389 181.541C132.389 179.48 133.346 178.172 135.035 178.172C136.715 178.172 137.74 179.48 137.74 181.551C137.74 183.611 136.725 184.92 135.035 184.92ZM148.688 172.908V187H153.971C158.189 187 160.602 184.412 160.602 179.891C160.602 175.467 158.16 172.908 153.971 172.908H148.688ZM151.207 175.027H153.639C156.402 175.027 158.033 176.824 158.033 179.93C158.033 183.104 156.441 184.881 153.639 184.881H151.207V175.027ZM164.469 174.539C165.27 174.539 165.924 173.904 165.924 173.104C165.924 172.312 165.27 171.668 164.469 171.668C163.678 171.668 163.023 172.312 163.023 173.104C163.023 173.904 163.678 174.539 164.469 174.539ZM163.268 187H165.68V176.326H163.268V187ZM168.443 179.373C168.443 180.975 169.41 181.912 171.461 182.381L173.355 182.82C174.371 183.055 174.83 183.445 174.83 184.051C174.83 184.861 173.98 185.418 172.76 185.418C171.549 185.418 170.797 184.93 170.562 184.139H168.17C168.355 186.062 170.035 187.215 172.701 187.215C175.367 187.215 177.252 185.857 177.252 183.816C177.252 182.244 176.305 181.375 174.264 180.906L172.379 180.486C171.305 180.232 170.797 179.852 170.797 179.246C170.797 178.455 171.627 177.918 172.73 177.918C173.863 177.918 174.576 178.406 174.752 179.158H177.027C176.852 177.234 175.26 176.121 172.721 176.121C170.201 176.121 168.443 177.459 168.443 179.373ZM186.666 184.08C186.314 184.881 185.484 185.33 184.283 185.33C182.691 185.33 181.666 184.197 181.607 182.391V182.264H189.068V181.492C189.068 178.143 187.242 176.121 184.195 176.121C181.1 176.121 179.176 178.279 179.176 181.707C179.176 185.125 181.07 187.215 184.215 187.215C186.734 187.215 188.521 186.004 188.961 184.08H186.666ZM184.186 178.006C185.641 178.006 186.598 179.031 186.646 180.652H181.617C181.725 179.051 182.74 178.006 184.186 178.006ZM194.439 187.176C195.836 187.176 197.008 186.57 197.604 185.535H197.77V187H200.104V179.705C200.104 177.449 198.561 176.121 195.816 176.121C193.277 176.121 191.51 177.312 191.314 179.178H193.6C193.824 178.445 194.586 178.045 195.699 178.045C197.008 178.045 197.711 178.641 197.711 179.705V180.623L194.957 180.789C192.359 180.936 190.904 182.059 190.904 183.973C190.904 185.926 192.379 187.176 194.439 187.176ZM195.152 185.311C194.078 185.311 193.307 184.773 193.307 183.855C193.307 182.967 193.941 182.469 195.299 182.381L197.711 182.215V183.084C197.711 184.354 196.617 185.311 195.152 185.311ZM202.779 179.373C202.779 180.975 203.746 181.912 205.797 182.381L207.691 182.82C208.707 183.055 209.166 183.445 209.166 184.051C209.166 184.861 208.316 185.418 207.096 185.418C205.885 185.418 205.133 184.93 204.898 184.139H202.506C202.691 186.062 204.371 187.215 207.037 187.215C209.703 187.215 211.588 185.857 211.588 183.816C211.588 182.244 210.641 181.375 208.6 180.906L206.715 180.486C205.641 180.232 205.133 179.852 205.133 179.246C205.133 178.455 205.963 177.918 207.066 177.918C208.199 177.918 208.912 178.406 209.088 179.158H211.363C211.188 177.234 209.596 176.121 207.057 176.121C204.537 176.121 202.779 177.459 202.779 179.373ZM221.002 184.08C220.65 184.881 219.82 185.33 218.619 185.33C217.027 185.33 216.002 184.197 215.943 182.391V182.264H223.404V181.492C223.404 178.143 221.578 176.121 218.531 176.121C215.436 176.121 213.512 178.279 213.512 181.707C213.512 185.125 215.406 187.215 218.551 187.215C221.07 187.215 222.857 186.004 223.297 184.08H221.002ZM218.521 178.006C219.977 178.006 220.934 179.031 220.982 180.652H215.953C216.061 179.051 217.076 178.006 218.521 178.006Z" fill="#8C8C8C"/>
</g>
<path d="M887 37C887 35.8954 887.895 35 889 35H968C969.105 35 970 35.8954 970 37V65C970 66.1046 969.105 67 968 67H889C887.895 67 887 66.1046 887 65V37Z" fill="#08979C"/>
<path d="M910.531 45.375H911.469C911.552 45.375 911.594 45.4167 911.594 45.5V56.5C911.594 56.5833 911.552 56.625 911.469 56.625H910.531C910.448 56.625 910.406 56.5833 910.406 56.5V45.5C910.406 45.4167 910.448 45.375 910.531 45.375Z" fill="white"/>
<path d="M905.75 50.4062H916.25C916.333 50.4062 916.375 50.4479 916.375 50.5312V51.4688C916.375 51.5521 916.333 51.5938 916.25 51.5938H905.75C905.667 51.5938 905.625 51.5521 905.625 51.4688V50.5312C905.625 50.4479 905.667 50.4062 905.75 50.4062Z" fill="white"/>
<path d="M934.67 56H935.962L932.325 46.1357H931.108L927.472 56H928.764L929.755 53.1768H933.679L934.67 56ZM931.662 47.7285H931.771L933.316 52.1309H930.117L931.662 47.7285ZM939.858 56.1299C940.877 56.1299 941.752 55.6445 942.217 54.8242H942.326V56H943.447V45.7051H942.271V49.793H942.169C941.752 48.9863 940.884 48.501 939.858 48.501C937.985 48.501 936.762 50.0049 936.762 52.3154C936.762 54.6328 937.972 56.1299 939.858 56.1299ZM940.132 49.5605C941.465 49.5605 942.299 50.627 942.299 52.3154C942.299 54.0176 941.472 55.0703 940.132 55.0703C938.785 55.0703 937.979 54.0381 937.979 52.3154C937.979 50.5996 938.792 49.5605 940.132 49.5605ZM948.458 56.1299C949.477 56.1299 950.352 55.6445 950.816 54.8242H950.926V56H952.047V45.7051H950.871V49.793H950.769C950.352 48.9863 949.483 48.501 948.458 48.501C946.585 48.501 945.361 50.0049 945.361 52.3154C945.361 54.6328 946.571 56.1299 948.458 56.1299ZM948.731 49.5605C950.064 49.5605 950.898 50.627 950.898 52.3154C950.898 54.0176 950.071 55.0703 948.731 55.0703C947.385 55.0703 946.578 54.0381 946.578 52.3154C946.578 50.5996 947.392 49.5605 948.731 49.5605Z" fill="white"/>
<path d="M887 166C887 164.895 887.895 164 889 164H968C969.105 164 970 164.895 970 166V194C970 195.105 969.105 196 968 196H889C887.895 196 887 195.105 887 194V166Z" fill="#08979C"/>
<path d="M910.531 174.375H911.469C911.552 174.375 911.594 174.417 911.594 174.5V185.5C911.594 185.583 911.552 185.625 911.469 185.625H910.531C910.448 185.625 910.406 185.583 910.406 185.5V174.5C910.406 174.417 910.448 174.375 910.531 174.375Z" fill="white"/>
<path d="M905.75 179.406H916.25C916.333 179.406 916.375 179.448 916.375 179.531V180.469C916.375 180.552 916.333 180.594 916.25 180.594H905.75C905.667 180.594 905.625 180.552 905.625 180.469V179.531C905.625 179.448 905.667 179.406 905.75 179.406Z" fill="white"/>
<path d="M934.67 185H935.962L932.325 175.136H931.108L927.472 185H928.764L929.755 182.177H933.679L934.67 185ZM931.662 176.729H931.771L933.316 181.131H930.117L931.662 176.729ZM939.858 185.13C940.877 185.13 941.752 184.645 942.217 183.824H942.326V185H943.447V174.705H942.271V178.793H942.169C941.752 177.986 940.884 177.501 939.858 177.501C937.985 177.501 936.762 179.005 936.762 181.315C936.762 183.633 937.972 185.13 939.858 185.13ZM940.132 178.561C941.465 178.561 942.299 179.627 942.299 181.315C942.299 183.018 941.472 184.07 940.132 184.07C938.785 184.07 937.979 183.038 937.979 181.315C937.979 179.6 938.792 178.561 940.132 178.561ZM948.458 185.13C949.477 185.13 950.352 184.645 950.816 183.824H950.926V185H952.047V174.705H950.871V178.793H950.769C950.352 177.986 949.483 177.501 948.458 177.501C946.585 177.501 945.361 179.005 945.361 181.315C945.361 183.633 946.571 185.13 948.458 185.13ZM948.731 178.561C950.064 178.561 950.898 179.627 950.898 181.315C950.898 183.018 950.071 184.07 948.731 184.07C947.385 184.07 946.578 183.038 946.578 181.315C946.578 179.6 947.392 178.561 948.731 178.561Z" fill="white"/>
<path d="M39.0518 94V85.2432H42.2305V84.1357H34.6426V85.2432H37.8213V94H39.0518ZM44.0488 94H45.2246V89.6387C45.2246 88.3945 45.9492 87.5605 47.2686 87.5605C48.3828 87.5605 48.9707 88.21 48.9707 89.5156V94H50.1465V89.2285C50.1465 87.499 49.1621 86.501 47.6035 86.501C46.4756 86.501 45.7031 86.9795 45.334 87.793H45.2246V83.7051H44.0488V94ZM57.1738 92.0928C56.8662 92.7422 56.2236 93.0908 55.2734 93.0908C54.0225 93.0908 53.209 92.168 53.1475 90.7119V90.6572H58.4453V90.2061C58.4453 87.916 57.2354 86.501 55.2461 86.501C53.2227 86.501 51.9238 88.0049 51.9238 90.3223C51.9238 92.6533 53.2021 94.1299 55.2461 94.1299C56.8594 94.1299 58.0078 93.3506 58.3496 92.0928H57.1738ZM55.2324 87.54C56.4014 87.54 57.1807 88.4014 57.208 89.707H53.1475C53.2363 88.4014 54.0566 87.54 55.2324 87.54ZM60.291 94H61.4668V89.4336C61.4668 88.3945 62.2803 87.6426 63.4014 87.6426C63.6338 87.6426 64.0576 87.6836 64.1533 87.7109V86.5352C64.0029 86.5146 63.7568 86.501 63.5654 86.501C62.5879 86.501 61.7402 87.0068 61.5215 87.7246H61.4121V86.6309H60.291V94ZM70.2988 92.0928C69.9912 92.7422 69.3486 93.0908 68.3984 93.0908C67.1475 93.0908 66.334 92.168 66.2725 90.7119V90.6572H71.5703V90.2061C71.5703 87.916 70.3604 86.501 68.3711 86.501C66.3477 86.501 65.0488 88.0049 65.0488 90.3223C65.0488 92.6533 66.3271 94.1299 68.3711 94.1299C69.9844 94.1299 71.1328 93.3506 71.4746 92.0928H70.2988ZM68.3574 87.54C69.5264 87.54 70.3057 88.4014 70.333 89.707H66.2725C66.3613 88.4014 67.1816 87.54 68.3574 87.54ZM77.9824 85.209C78.4336 85.209 78.8027 84.8398 78.8027 84.3887C78.8027 83.9375 78.4336 83.5684 77.9824 83.5684C77.5312 83.5684 77.1621 83.9375 77.1621 84.3887C77.1621 84.8398 77.5312 85.209 77.9824 85.209ZM77.3945 94H78.5703V86.6309H77.3945V94ZM80.6416 88.6475C80.6416 89.7139 81.2705 90.3086 82.6514 90.6436L83.916 90.9512C84.7021 91.1426 85.085 91.4844 85.085 91.9902C85.085 92.667 84.374 93.1387 83.3828 93.1387C82.4395 93.1387 81.8516 92.7422 81.6533 92.1201H80.4434C80.5732 93.3438 81.7012 94.1299 83.3418 94.1299C85.0166 94.1299 86.2949 93.2207 86.2949 91.9014C86.2949 90.8418 85.625 90.2402 84.2373 89.9053L83.1025 89.6318C82.2344 89.4199 81.8242 89.1055 81.8242 88.5996C81.8242 87.9434 82.5078 87.499 83.3828 87.499C84.2715 87.499 84.8457 87.8887 85.0029 88.4766H86.165C86.0078 87.2666 84.9346 86.501 83.3896 86.501C81.8242 86.501 80.6416 87.4238 80.6416 88.6475ZM92.0918 94H93.2676V89.6387C93.2676 88.3467 94.0264 87.5605 95.2021 87.5605C96.3779 87.5605 96.9385 88.1895 96.9385 89.5156V94H98.1143V89.2285C98.1143 87.4785 97.1914 86.501 95.5371 86.501C94.4092 86.501 93.6914 86.9795 93.3223 87.793H93.2129V86.6309H92.0918V94ZM103.296 94.1299C105.395 94.1299 106.693 92.6807 106.693 90.3154C106.693 87.9434 105.395 86.501 103.296 86.501C101.197 86.501 99.8984 87.9434 99.8984 90.3154C99.8984 92.6807 101.197 94.1299 103.296 94.1299ZM103.296 93.0703C101.901 93.0703 101.115 92.0586 101.115 90.3154C101.115 88.5654 101.901 87.5605 103.296 87.5605C104.69 87.5605 105.477 88.5654 105.477 90.3154C105.477 92.0586 104.69 93.0703 103.296 93.0703ZM116.079 86.501C115.074 86.501 114.192 87.0137 113.721 87.8613H113.611V86.6309H112.49V96.4609H113.666V92.8926H113.775C114.179 93.6719 115.026 94.1299 116.079 94.1299C117.952 94.1299 119.176 92.6191 119.176 90.3154C119.176 87.998 117.959 86.501 116.079 86.501ZM115.799 93.0703C114.473 93.0703 113.632 92.0039 113.632 90.3154C113.632 88.6201 114.473 87.5605 115.806 87.5605C117.152 87.5605 117.959 88.5928 117.959 90.3154C117.959 92.0381 117.152 93.0703 115.799 93.0703ZM121.021 94H122.197V89.4336C122.197 88.3945 123.011 87.6426 124.132 87.6426C124.364 87.6426 124.788 87.6836 124.884 87.7109V86.5352C124.733 86.5146 124.487 86.501 124.296 86.501C123.318 86.501 122.471 87.0068 122.252 87.7246H122.143V86.6309H121.021V94ZM131.029 92.0928C130.722 92.7422 130.079 93.0908 129.129 93.0908C127.878 93.0908 127.064 92.168 127.003 90.7119V90.6572H132.301V90.2061C132.301 87.916 131.091 86.501 129.102 86.501C127.078 86.501 125.779 88.0049 125.779 90.3223C125.779 92.6533 127.058 94.1299 129.102 94.1299C130.715 94.1299 131.863 93.3506 132.205 92.0928H131.029ZM129.088 87.54C130.257 87.54 131.036 88.4014 131.063 89.707H127.003C127.092 88.4014 127.912 87.54 129.088 87.54ZM137.182 96.8301C139.191 96.8301 140.463 95.7773 140.463 94.1299V86.6309H139.342V87.7998H139.232C138.809 87.0068 137.899 86.501 136.867 86.501C134.974 86.501 133.777 87.998 133.777 90.2061C133.777 92.4141 134.96 93.8906 136.867 93.8906C137.879 93.8906 138.713 93.4326 139.178 92.6191H139.287V94.0684C139.287 95.1553 138.501 95.8047 137.182 95.8047C136.122 95.8047 135.466 95.415 135.336 94.8135H134.092C134.27 96.0303 135.404 96.8301 137.182 96.8301ZM137.127 92.8516C135.76 92.8516 134.994 91.8125 134.994 90.2061C134.994 88.5996 135.76 87.5605 137.127 87.5605C138.487 87.5605 139.314 88.5996 139.314 90.2061C139.314 91.8125 138.494 92.8516 137.127 92.8516ZM142.678 94H143.854V89.6387C143.854 88.3467 144.612 87.5605 145.788 87.5605C146.964 87.5605 147.524 88.1895 147.524 89.5156V94H148.7V89.2285C148.7 87.4785 147.777 86.501 146.123 86.501C144.995 86.501 144.277 86.9795 143.908 87.793H143.799V86.6309H142.678V94ZM152.904 94.1299C153.889 94.1299 154.695 93.6992 155.174 92.9131H155.283V94H156.404V88.9551C156.404 87.4238 155.399 86.501 153.602 86.501C152.029 86.501 150.867 87.2803 150.71 88.4629H151.899C152.063 87.8818 152.679 87.5469 153.561 87.5469C154.661 87.5469 155.229 88.0459 155.229 88.9551V89.625L153.103 89.7549C151.387 89.8574 150.416 90.6162 150.416 91.9355C150.416 93.2822 151.476 94.1299 152.904 94.1299ZM153.123 93.0977C152.269 93.0977 151.633 92.6602 151.633 91.9082C151.633 91.1699 152.125 90.7803 153.246 90.7051L155.229 90.5752V91.252C155.229 92.3047 154.333 93.0977 153.123 93.0977ZM158.578 94H159.754V89.6387C159.754 88.3467 160.513 87.5605 161.688 87.5605C162.864 87.5605 163.425 88.1895 163.425 89.5156V94H164.601V89.2285C164.601 87.4785 163.678 86.501 162.023 86.501C160.896 86.501 160.178 86.9795 159.809 87.793H159.699V86.6309H158.578V94ZM172.852 88.8867C172.646 87.5742 171.553 86.501 169.762 86.501C167.697 86.501 166.385 87.9912 166.385 90.2881C166.385 92.6328 167.704 94.1299 169.769 94.1299C171.539 94.1299 172.64 93.1318 172.852 91.7783H171.662C171.443 92.6123 170.753 93.0703 169.762 93.0703C168.449 93.0703 167.602 91.9902 167.602 90.2881C167.602 88.6201 168.436 87.5605 169.762 87.5605C170.821 87.5605 171.471 88.1553 171.662 88.8867H172.852ZM175.217 96.666C176.522 96.666 177.11 96.1602 177.739 94.4512L180.617 86.6309H179.366L177.35 92.6943H177.24L175.217 86.6309H173.945L176.673 94.0068L176.536 94.4443C176.229 95.333 175.859 95.6543 175.183 95.6543C175.019 95.6543 174.834 95.6475 174.69 95.6201V96.625C174.854 96.6523 175.06 96.666 175.217 96.666ZM189.729 86.501C188.725 86.501 187.843 87.0137 187.371 87.8613H187.262V86.6309H186.141V96.4609H187.316V92.8926H187.426C187.829 93.6719 188.677 94.1299 189.729 94.1299C191.603 94.1299 192.826 92.6191 192.826 90.3154C192.826 87.998 191.609 86.501 189.729 86.501ZM189.449 93.0703C188.123 93.0703 187.282 92.0039 187.282 90.3154C187.282 88.6201 188.123 87.5605 189.456 87.5605C190.803 87.5605 191.609 88.5928 191.609 90.3154C191.609 92.0381 190.803 93.0703 189.449 93.0703ZM194.672 94H195.848V89.4336C195.848 88.3945 196.661 87.6426 197.782 87.6426C198.015 87.6426 198.438 87.6836 198.534 87.7109V86.5352C198.384 86.5146 198.138 86.501 197.946 86.501C196.969 86.501 196.121 87.0068 195.902 87.7246H195.793V86.6309H194.672V94ZM202.827 94.1299C204.926 94.1299 206.225 92.6807 206.225 90.3154C206.225 87.9434 204.926 86.501 202.827 86.501C200.729 86.501 199.43 87.9434 199.43 90.3154C199.43 92.6807 200.729 94.1299 202.827 94.1299ZM202.827 93.0703C201.433 93.0703 200.646 92.0586 200.646 90.3154C200.646 88.5654 201.433 87.5605 202.827 87.5605C204.222 87.5605 205.008 88.5654 205.008 90.3154C205.008 92.0586 204.222 93.0703 202.827 93.0703ZM211.734 94.1299C213.601 94.1299 214.824 92.6191 214.824 90.3154C214.824 87.998 213.607 86.501 211.734 86.501C210.723 86.501 209.827 87 209.424 87.793H209.314V83.7051H208.139V94H209.26V92.8242H209.369C209.834 93.6445 210.709 94.1299 211.734 94.1299ZM211.461 87.5605C212.808 87.5605 213.607 88.5928 213.607 90.3154C213.607 92.0381 212.808 93.0703 211.461 93.0703C210.121 93.0703 209.287 92.0176 209.287 90.3154C209.287 88.6133 210.121 87.5605 211.461 87.5605ZM216.738 94H217.914V83.7051H216.738V94ZM225.078 92.0928C224.771 92.7422 224.128 93.0908 223.178 93.0908C221.927 93.0908 221.113 92.168 221.052 90.7119V90.6572H226.35V90.2061C226.35 87.916 225.14 86.501 223.15 86.501C221.127 86.501 219.828 88.0049 219.828 90.3223C219.828 92.6533 221.106 94.1299 223.15 94.1299C224.764 94.1299 225.912 93.3506 226.254 92.0928H225.078ZM223.137 87.54C224.306 87.54 225.085 88.4014 225.112 89.707H221.052C221.141 88.4014 221.961 87.54 223.137 87.54ZM228.195 94H229.371V89.4336C229.371 88.3945 230.116 87.5605 231.08 87.5605C232.01 87.5605 232.618 88.1211 232.618 88.9961V94H233.794V89.2627C233.794 88.3262 234.478 87.5605 235.503 87.5605C236.542 87.5605 237.055 88.0938 237.055 89.1807V94H238.23V88.9072C238.23 87.3623 237.39 86.501 235.886 86.501C234.867 86.501 234.026 87.0137 233.63 87.793H233.521C233.179 87.0273 232.481 86.501 231.483 86.501C230.499 86.501 229.761 86.9727 229.426 87.793H229.316V86.6309H228.195V94ZM240.206 88.6475C240.206 89.7139 240.835 90.3086 242.216 90.6436L243.48 90.9512C244.267 91.1426 244.649 91.4844 244.649 91.9902C244.649 92.667 243.938 93.1387 242.947 93.1387C242.004 93.1387 241.416 92.7422 241.218 92.1201H240.008C240.138 93.3438 241.266 94.1299 242.906 94.1299C244.581 94.1299 245.859 93.2207 245.859 91.9014C245.859 90.8418 245.189 90.2402 243.802 89.9053L242.667 89.6318C241.799 89.4199 241.389 89.1055 241.389 88.5996C241.389 87.9434 242.072 87.499 242.947 87.499C243.836 87.499 244.41 87.8887 244.567 88.4766H245.729C245.572 87.2666 244.499 86.501 242.954 86.501C241.389 86.501 240.206 87.4238 240.206 88.6475ZM253.707 94.1299C254.691 94.1299 255.498 93.6992 255.977 92.9131H256.086V94H257.207V88.9551C257.207 87.4238 256.202 86.501 254.404 86.501C252.832 86.501 251.67 87.2803 251.513 88.4629H252.702C252.866 87.8818 253.481 87.5469 254.363 87.5469C255.464 87.5469 256.031 88.0459 256.031 88.9551V89.625L253.905 89.7549C252.189 89.8574 251.219 90.6162 251.219 91.9355C251.219 93.2822 252.278 94.1299 253.707 94.1299ZM253.926 93.0977C253.071 93.0977 252.436 92.6602 252.436 91.9082C252.436 91.1699 252.928 90.7803 254.049 90.7051L256.031 90.5752V91.252C256.031 92.3047 255.136 93.0977 253.926 93.0977ZM262.108 94.1299C263.127 94.1299 264.002 93.6445 264.467 92.8242H264.576V94H265.697V83.7051H264.521V87.793H264.419C264.002 86.9863 263.134 86.501 262.108 86.501C260.235 86.501 259.012 88.0049 259.012 90.3154C259.012 92.6328 260.222 94.1299 262.108 94.1299ZM262.382 87.5605C263.715 87.5605 264.549 88.627 264.549 90.3154C264.549 92.0176 263.722 93.0703 262.382 93.0703C261.035 93.0703 260.229 92.0381 260.229 90.3154C260.229 88.5996 261.042 87.5605 262.382 87.5605ZM270.708 94.1299C271.727 94.1299 272.602 93.6445 273.066 92.8242H273.176V94H274.297V83.7051H273.121V87.793H273.019C272.602 86.9863 271.733 86.501 270.708 86.501C268.835 86.501 267.611 88.0049 267.611 90.3154C267.611 92.6328 268.821 94.1299 270.708 94.1299ZM270.981 87.5605C272.314 87.5605 273.148 88.627 273.148 90.3154C273.148 92.0176 272.321 93.0703 270.981 93.0703C269.635 93.0703 268.828 92.0381 268.828 90.3154C268.828 88.5996 269.642 87.5605 270.981 87.5605ZM281.461 92.0928C281.153 92.7422 280.511 93.0908 279.561 93.0908C278.31 93.0908 277.496 92.168 277.435 90.7119V90.6572H282.732V90.2061C282.732 87.916 281.522 86.501 279.533 86.501C277.51 86.501 276.211 88.0049 276.211 90.3223C276.211 92.6533 277.489 94.1299 279.533 94.1299C281.146 94.1299 282.295 93.3506 282.637 92.0928H281.461ZM279.52 87.54C280.688 87.54 281.468 88.4014 281.495 89.707H277.435C277.523 88.4014 278.344 87.54 279.52 87.54ZM287.306 94.1299C288.324 94.1299 289.199 93.6445 289.664 92.8242H289.773V94H290.895V83.7051H289.719V87.793H289.616C289.199 86.9863 288.331 86.501 287.306 86.501C285.433 86.501 284.209 88.0049 284.209 90.3154C284.209 92.6328 285.419 94.1299 287.306 94.1299ZM287.579 87.5605C288.912 87.5605 289.746 88.627 289.746 90.3154C289.746 92.0176 288.919 93.0703 287.579 93.0703C286.232 93.0703 285.426 92.0381 285.426 90.3154C285.426 88.5996 286.239 87.5605 287.579 87.5605ZM297.621 84.7236V86.6309H296.432V87.6152H297.621V92.0859C297.621 93.4941 298.229 94.0547 299.747 94.0547C299.979 94.0547 300.205 94.0273 300.438 93.9863V92.9951C300.219 93.0156 300.103 93.0225 299.891 93.0225C299.125 93.0225 298.797 92.6533 298.797 91.7852V87.6152H300.438V86.6309H298.797V84.7236H297.621ZM305.134 94.1299C307.232 94.1299 308.531 92.6807 308.531 90.3154C308.531 87.9434 307.232 86.501 305.134 86.501C303.035 86.501 301.736 87.9434 301.736 90.3154C301.736 92.6807 303.035 94.1299 305.134 94.1299ZM305.134 93.0703C303.739 93.0703 302.953 92.0586 302.953 90.3154C302.953 88.5654 303.739 87.5605 305.134 87.5605C306.528 87.5605 307.314 88.5654 307.314 90.3154C307.314 92.0586 306.528 93.0703 305.134 93.0703ZM314.82 84.7236V86.6309H313.631V87.6152H314.82V92.0859C314.82 93.4941 315.429 94.0547 316.946 94.0547C317.179 94.0547 317.404 94.0273 317.637 93.9863V92.9951C317.418 93.0156 317.302 93.0225 317.09 93.0225C316.324 93.0225 315.996 92.6533 315.996 91.7852V87.6152H317.637V86.6309H315.996V84.7236H314.82ZM319.482 94H320.658V89.6387C320.658 88.3945 321.383 87.5605 322.702 87.5605C323.816 87.5605 324.404 88.21 324.404 89.5156V94H325.58V89.2285C325.58 87.499 324.596 86.501 323.037 86.501C321.909 86.501 321.137 86.9795 320.768 87.793H320.658V83.7051H319.482V94ZM332.607 92.0928C332.3 92.7422 331.657 93.0908 330.707 93.0908C329.456 93.0908 328.643 92.168 328.581 90.7119V90.6572H333.879V90.2061C333.879 87.916 332.669 86.501 330.68 86.501C328.656 86.501 327.357 88.0049 327.357 90.3223C327.357 92.6533 328.636 94.1299 330.68 94.1299C332.293 94.1299 333.441 93.3506 333.783 92.0928H332.607ZM330.666 87.54C331.835 87.54 332.614 88.4014 332.642 89.707H328.581C328.67 88.4014 329.49 87.54 330.666 87.54ZM339.505 88.6475C339.505 89.7139 340.134 90.3086 341.515 90.6436L342.779 90.9512C343.565 91.1426 343.948 91.4844 343.948 91.9902C343.948 92.667 343.237 93.1387 342.246 93.1387C341.303 93.1387 340.715 92.7422 340.517 92.1201H339.307C339.437 93.3438 340.564 94.1299 342.205 94.1299C343.88 94.1299 345.158 93.2207 345.158 91.9014C345.158 90.8418 344.488 90.2402 343.101 89.9053L341.966 89.6318C341.098 89.4199 340.688 89.1055 340.688 88.5996C340.688 87.9434 341.371 87.499 342.246 87.499C343.135 87.499 343.709 87.8887 343.866 88.4766H345.028C344.871 87.2666 343.798 86.501 342.253 86.501C340.688 86.501 339.505 87.4238 339.505 88.6475ZM347.428 96.666C348.733 96.666 349.321 96.1602 349.95 94.4512L352.828 86.6309H351.577L349.561 92.6943H349.451L347.428 86.6309H346.156L348.884 94.0068L348.747 94.4443C348.439 95.333 348.07 95.6543 347.394 95.6543C347.229 95.6543 347.045 95.6475 346.901 95.6201V96.625C347.065 96.6523 347.271 96.666 347.428 96.666ZM354.024 88.6475C354.024 89.7139 354.653 90.3086 356.034 90.6436L357.299 90.9512C358.085 91.1426 358.468 91.4844 358.468 91.9902C358.468 92.667 357.757 93.1387 356.766 93.1387C355.822 93.1387 355.234 92.7422 355.036 92.1201H353.826C353.956 93.3438 355.084 94.1299 356.725 94.1299C358.399 94.1299 359.678 93.2207 359.678 91.9014C359.678 90.8418 359.008 90.2402 357.62 89.9053L356.485 89.6318C355.617 89.4199 355.207 89.1055 355.207 88.5996C355.207 87.9434 355.891 87.499 356.766 87.499C357.654 87.499 358.229 87.8887 358.386 88.4766H359.548C359.391 87.2666 358.317 86.501 356.772 86.501C355.207 86.501 354.024 87.4238 354.024 88.6475ZM361.947 84.7236V86.6309H360.758V87.6152H361.947V92.0859C361.947 93.4941 362.556 94.0547 364.073 94.0547C364.306 94.0547 364.531 94.0273 364.764 93.9863V92.9951C364.545 93.0156 364.429 93.0225 364.217 93.0225C363.451 93.0225 363.123 92.6533 363.123 91.7852V87.6152H364.764V86.6309H363.123V84.7236H361.947ZM371.312 92.0928C371.005 92.7422 370.362 93.0908 369.412 93.0908C368.161 93.0908 367.348 92.168 367.286 90.7119V90.6572H372.584V90.2061C372.584 87.916 371.374 86.501 369.385 86.501C367.361 86.501 366.062 88.0049 366.062 90.3223C366.062 92.6533 367.341 94.1299 369.385 94.1299C370.998 94.1299 372.146 93.3506 372.488 92.0928H371.312ZM369.371 87.54C370.54 87.54 371.319 88.4014 371.347 89.707H367.286C367.375 88.4014 368.195 87.54 369.371 87.54ZM374.43 94H375.605V89.4336C375.605 88.3945 376.351 87.5605 377.314 87.5605C378.244 87.5605 378.853 88.1211 378.853 88.9961V94H380.028V89.2627C380.028 88.3262 380.712 87.5605 381.737 87.5605C382.776 87.5605 383.289 88.0938 383.289 89.1807V94H384.465V88.9072C384.465 87.3623 383.624 86.501 382.12 86.501C381.102 86.501 380.261 87.0137 379.864 87.793H379.755C379.413 87.0273 378.716 86.501 377.718 86.501C376.733 86.501 375.995 86.9727 375.66 87.793H375.551V86.6309H374.43V94ZM387.582 94.0684C388.074 94.0684 388.471 93.665 388.471 93.1797C388.471 92.6875 388.074 92.291 387.582 92.291C387.097 92.291 386.693 92.6875 386.693 93.1797C386.693 93.665 387.097 94.0684 387.582 94.0684ZM398.663 94V85.2432H401.842V84.1357H394.254V85.2432H397.433V94H398.663ZM405.253 94.1299C407.352 94.1299 408.65 92.6807 408.65 90.3154C408.65 87.9434 407.352 86.501 405.253 86.501C403.154 86.501 401.855 87.9434 401.855 90.3154C401.855 92.6807 403.154 94.1299 405.253 94.1299ZM405.253 93.0703C403.858 93.0703 403.072 92.0586 403.072 90.3154C403.072 88.5654 403.858 87.5605 405.253 87.5605C406.647 87.5605 407.434 88.5654 407.434 90.3154C407.434 92.0586 406.647 93.0703 405.253 93.0703ZM416.498 94.1299C417.482 94.1299 418.289 93.6992 418.768 92.9131H418.877V94H419.998V88.9551C419.998 87.4238 418.993 86.501 417.195 86.501C415.623 86.501 414.461 87.2803 414.304 88.4629H415.493C415.657 87.8818 416.272 87.5469 417.154 87.5469C418.255 87.5469 418.822 88.0459 418.822 88.9551V89.625L416.696 89.7549C414.98 89.8574 414.01 90.6162 414.01 91.9355C414.01 93.2822 415.069 94.1299 416.498 94.1299ZM416.717 93.0977C415.862 93.0977 415.227 92.6602 415.227 91.9082C415.227 91.1699 415.719 90.7803 416.84 90.7051L418.822 90.5752V91.252C418.822 92.3047 417.927 93.0977 416.717 93.0977ZM424.899 94.1299C425.918 94.1299 426.793 93.6445 427.258 92.8242H427.367V94H428.488V83.7051H427.312V87.793H427.21C426.793 86.9863 425.925 86.501 424.899 86.501C423.026 86.501 421.803 88.0049 421.803 90.3154C421.803 92.6328 423.013 94.1299 424.899 94.1299ZM425.173 87.5605C426.506 87.5605 427.34 88.627 427.34 90.3154C427.34 92.0176 426.513 93.0703 425.173 93.0703C423.826 93.0703 423.02 92.0381 423.02 90.3154C423.02 88.5996 423.833 87.5605 425.173 87.5605ZM433.499 94.1299C434.518 94.1299 435.393 93.6445 435.857 92.8242H435.967V94H437.088V83.7051H435.912V87.793H435.81C435.393 86.9863 434.524 86.501 433.499 86.501C431.626 86.501 430.402 88.0049 430.402 90.3154C430.402 92.6328 431.612 94.1299 433.499 94.1299ZM433.772 87.5605C435.105 87.5605 435.939 88.627 435.939 90.3154C435.939 92.0176 435.112 93.0703 433.772 93.0703C432.426 93.0703 431.619 92.0381 431.619 90.3154C431.619 88.5996 432.433 87.5605 433.772 87.5605ZM443.322 94H444.498V89.6387C444.498 88.3467 445.257 87.5605 446.433 87.5605C447.608 87.5605 448.169 88.1895 448.169 89.5156V94H449.345V89.2285C449.345 87.4785 448.422 86.501 446.768 86.501C445.64 86.501 444.922 86.9795 444.553 87.793H444.443V86.6309H443.322V94ZM456.379 92.0928C456.071 92.7422 455.429 93.0908 454.479 93.0908C453.228 93.0908 452.414 92.168 452.353 90.7119V90.6572H457.65V90.2061C457.65 87.916 456.44 86.501 454.451 86.501C452.428 86.501 451.129 88.0049 451.129 90.3223C451.129 92.6533 452.407 94.1299 454.451 94.1299C456.064 94.1299 457.213 93.3506 457.555 92.0928H456.379ZM454.438 87.54C455.606 87.54 456.386 88.4014 456.413 89.707H452.353C452.441 88.4014 453.262 87.54 454.438 87.54ZM468.766 86.6309H467.583L466.134 92.5234H466.024L464.377 86.6309H463.249L461.602 92.5234H461.492L460.043 86.6309H458.854L460.918 94H462.107L463.748 88.2988H463.857L465.505 94H466.701L468.766 86.6309ZM477.317 94.1299C479.416 94.1299 480.715 92.6807 480.715 90.3154C480.715 87.9434 479.416 86.501 477.317 86.501C475.219 86.501 473.92 87.9434 473.92 90.3154C473.92 92.6807 475.219 94.1299 477.317 94.1299ZM477.317 93.0703C475.923 93.0703 475.137 92.0586 475.137 90.3154C475.137 88.5654 475.923 87.5605 477.317 87.5605C478.712 87.5605 479.498 88.5654 479.498 90.3154C479.498 92.0586 478.712 93.0703 477.317 93.0703ZM482.561 94H483.736V89.6387C483.736 88.3467 484.495 87.5605 485.671 87.5605C486.847 87.5605 487.407 88.1895 487.407 89.5156V94H488.583V89.2285C488.583 87.4785 487.66 86.501 486.006 86.501C484.878 86.501 484.16 86.9795 483.791 87.793H483.682V86.6309H482.561V94ZM495.617 92.0928C495.31 92.7422 494.667 93.0908 493.717 93.0908C492.466 93.0908 491.652 92.168 491.591 90.7119V90.6572H496.889V90.2061C496.889 87.916 495.679 86.501 493.689 86.501C491.666 86.501 490.367 88.0049 490.367 90.3223C490.367 92.6533 491.646 94.1299 493.689 94.1299C495.303 94.1299 496.451 93.3506 496.793 92.0928H495.617ZM493.676 87.54C494.845 87.54 495.624 88.4014 495.651 89.707H491.591C491.68 88.4014 492.5 87.54 493.676 87.54ZM508.783 88.8867C508.578 87.5742 507.484 86.501 505.693 86.501C503.629 86.501 502.316 87.9912 502.316 90.2881C502.316 92.6328 503.636 94.1299 505.7 94.1299C507.471 94.1299 508.571 93.1318 508.783 91.7783H507.594C507.375 92.6123 506.685 93.0703 505.693 93.0703C504.381 93.0703 503.533 91.9902 503.533 90.2881C503.533 88.6201 504.367 87.5605 505.693 87.5605C506.753 87.5605 507.402 88.1553 507.594 88.8867H508.783ZM510.588 94H511.764V83.7051H510.588V94ZM514.662 85.209C515.113 85.209 515.482 84.8398 515.482 84.3887C515.482 83.9375 515.113 83.5684 514.662 83.5684C514.211 83.5684 513.842 83.9375 513.842 84.3887C513.842 84.8398 514.211 85.209 514.662 85.209ZM514.074 94H515.25V86.6309H514.074V94ZM523.59 88.8867C523.385 87.5742 522.291 86.501 520.5 86.501C518.436 86.501 517.123 87.9912 517.123 90.2881C517.123 92.6328 518.442 94.1299 520.507 94.1299C522.277 94.1299 523.378 93.1318 523.59 91.7783H522.4C522.182 92.6123 521.491 93.0703 520.5 93.0703C519.188 93.0703 518.34 91.9902 518.34 90.2881C518.34 88.6201 519.174 87.5605 520.5 87.5605C521.56 87.5605 522.209 88.1553 522.4 88.8867H523.59ZM526.68 89.8506H526.57V83.7051H525.395V94H526.57V91.2041L527.274 90.5479L530.036 94H531.533L528.149 89.7891L531.321 86.6309H529.879L526.68 89.8506ZM539.907 94.1299C542.006 94.1299 543.305 92.6807 543.305 90.3154C543.305 87.9434 542.006 86.501 539.907 86.501C537.809 86.501 536.51 87.9434 536.51 90.3154C536.51 92.6807 537.809 94.1299 539.907 94.1299ZM539.907 93.0703C538.513 93.0703 537.727 92.0586 537.727 90.3154C537.727 88.5654 538.513 87.5605 539.907 87.5605C541.302 87.5605 542.088 88.5654 542.088 90.3154C542.088 92.0586 541.302 93.0703 539.907 93.0703ZM545.15 94H546.326V89.6387C546.326 88.3467 547.085 87.5605 548.261 87.5605C549.437 87.5605 549.997 88.1895 549.997 89.5156V94H551.173V89.2285C551.173 87.4785 550.25 86.501 548.596 86.501C547.468 86.501 546.75 86.9795 546.381 87.793H546.271V86.6309H545.15V94ZM558.378 84.1357L557.168 88.0254H558.474L559.26 84.1357H558.378ZM560.996 84.1357L559.923 88.0254H561.229L561.878 84.1357H560.996ZM568.194 90.6641H570.942V89.5566H568.194V86.6719H567.087V89.5566H564.339V90.6641H567.087V93.5488H568.194V90.6641ZM583.801 94H585.093L581.456 84.1357H580.239L576.603 94H577.895L578.886 91.1768H582.81L583.801 94ZM580.793 85.7285H580.902L582.447 90.1309H579.248L580.793 85.7285ZM588.989 94.1299C590.008 94.1299 590.883 93.6445 591.348 92.8242H591.457V94H592.578V83.7051H591.402V87.793H591.3C590.883 86.9863 590.015 86.501 588.989 86.501C587.116 86.501 585.893 88.0049 585.893 90.3154C585.893 92.6328 587.103 94.1299 588.989 94.1299ZM589.263 87.5605C590.596 87.5605 591.43 88.627 591.43 90.3154C591.43 92.0176 590.603 93.0703 589.263 93.0703C587.916 93.0703 587.109 92.0381 587.109 90.3154C587.109 88.5996 587.923 87.5605 589.263 87.5605ZM597.589 94.1299C598.607 94.1299 599.482 93.6445 599.947 92.8242H600.057V94H601.178V83.7051H600.002V87.793H599.899C599.482 86.9863 598.614 86.501 597.589 86.501C595.716 86.501 594.492 88.0049 594.492 90.3154C594.492 92.6328 595.702 94.1299 597.589 94.1299ZM597.862 87.5605C599.195 87.5605 600.029 88.627 600.029 90.3154C600.029 92.0176 599.202 93.0703 597.862 93.0703C596.516 93.0703 595.709 92.0381 595.709 90.3154C595.709 88.5996 596.522 87.5605 597.862 87.5605ZM604.452 88.0254L605.525 84.1357H604.22L603.57 88.0254H604.452ZM607.07 88.0254L608.28 84.1357H606.975L606.188 88.0254H607.07ZM618.008 94.1299C619.874 94.1299 621.098 92.6191 621.098 90.3154C621.098 87.998 619.881 86.501 618.008 86.501C616.996 86.501 616.101 87 615.697 87.793H615.588V83.7051H614.412V94H615.533V92.8242H615.643C616.107 93.6445 616.982 94.1299 618.008 94.1299ZM617.734 87.5605C619.081 87.5605 619.881 88.5928 619.881 90.3154C619.881 92.0381 619.081 93.0703 617.734 93.0703C616.395 93.0703 615.561 92.0176 615.561 90.3154C615.561 88.6133 616.395 87.5605 617.734 87.5605ZM628.904 86.6309H627.729V90.9922C627.729 92.2842 627.018 93.0566 625.719 93.0566C624.543 93.0566 624.051 92.4414 624.051 91.1152V86.6309H622.875V91.4023C622.875 93.1455 623.736 94.1299 625.391 94.1299C626.519 94.1299 627.305 93.665 627.674 92.8447H627.783V94H628.904V86.6309ZM631.611 84.7236V86.6309H630.422V87.6152H631.611V92.0859C631.611 93.4941 632.22 94.0547 633.737 94.0547C633.97 94.0547 634.195 94.0273 634.428 93.9863V92.9951C634.209 93.0156 634.093 93.0225 633.881 93.0225C633.115 93.0225 632.787 92.6533 632.787 91.7852V87.6152H634.428V86.6309H632.787V84.7236H631.611ZM636.697 84.7236V86.6309H635.508V87.6152H636.697V92.0859C636.697 93.4941 637.306 94.0547 638.823 94.0547C639.056 94.0547 639.281 94.0273 639.514 93.9863V92.9951C639.295 93.0156 639.179 93.0225 638.967 93.0225C638.201 93.0225 637.873 92.6533 637.873 91.7852V87.6152H639.514V86.6309H637.873V84.7236H636.697ZM644.21 94.1299C646.309 94.1299 647.607 92.6807 647.607 90.3154C647.607 87.9434 646.309 86.501 644.21 86.501C642.111 86.501 640.812 87.9434 640.812 90.3154C640.812 92.6807 642.111 94.1299 644.21 94.1299ZM644.21 93.0703C642.815 93.0703 642.029 92.0586 642.029 90.3154C642.029 88.5654 642.815 87.5605 644.21 87.5605C645.604 87.5605 646.391 88.5654 646.391 90.3154C646.391 92.0586 645.604 93.0703 644.21 93.0703ZM649.453 94H650.629V89.6387C650.629 88.3467 651.388 87.5605 652.563 87.5605C653.739 87.5605 654.3 88.1895 654.3 89.5156V94H655.476V89.2285C655.476 87.4785 654.553 86.501 652.898 86.501C651.771 86.501 651.053 86.9795 650.684 87.793H650.574V86.6309H649.453V94ZM658.6 94.0684C659.092 94.0684 659.488 93.665 659.488 93.1797C659.488 92.6875 659.092 92.291 658.6 92.291C658.114 92.291 657.711 92.6875 657.711 93.1797C657.711 93.665 658.114 94.0684 658.6 94.0684Z" fill="#8C8C8C"/>
<path d="M39.0518 223V214.243H42.2305V213.136H34.6426V214.243H37.8213V223H39.0518ZM44.0488 223H45.2246V218.639C45.2246 217.395 45.9492 216.561 47.2686 216.561C48.3828 216.561 48.9707 217.21 48.9707 218.516V223H50.1465V218.229C50.1465 216.499 49.1621 215.501 47.6035 215.501C46.4756 215.501 45.7031 215.979 45.334 216.793H45.2246V212.705H44.0488V223ZM57.1738 221.093C56.8662 221.742 56.2236 222.091 55.2734 222.091C54.0225 222.091 53.209 221.168 53.1475 219.712V219.657H58.4453V219.206C58.4453 216.916 57.2354 215.501 55.2461 215.501C53.2227 215.501 51.9238 217.005 51.9238 219.322C51.9238 221.653 53.2021 223.13 55.2461 223.13C56.8594 223.13 58.0078 222.351 58.3496 221.093H57.1738ZM55.2324 216.54C56.4014 216.54 57.1807 217.401 57.208 218.707H53.1475C53.2363 217.401 54.0566 216.54 55.2324 216.54ZM60.291 223H61.4668V218.434C61.4668 217.395 62.2803 216.643 63.4014 216.643C63.6338 216.643 64.0576 216.684 64.1533 216.711V215.535C64.0029 215.515 63.7568 215.501 63.5654 215.501C62.5879 215.501 61.7402 216.007 61.5215 216.725H61.4121V215.631H60.291V223ZM70.2988 221.093C69.9912 221.742 69.3486 222.091 68.3984 222.091C67.1475 222.091 66.334 221.168 66.2725 219.712V219.657H71.5703V219.206C71.5703 216.916 70.3604 215.501 68.3711 215.501C66.3477 215.501 65.0488 217.005 65.0488 219.322C65.0488 221.653 66.3271 223.13 68.3711 223.13C69.9844 223.13 71.1328 222.351 71.4746 221.093H70.2988ZM68.3574 216.54C69.5264 216.54 70.3057 217.401 70.333 218.707H66.2725C66.3613 217.401 67.1816 216.54 68.3574 216.54ZM77.9824 214.209C78.4336 214.209 78.8027 213.84 78.8027 213.389C78.8027 212.938 78.4336 212.568 77.9824 212.568C77.5312 212.568 77.1621 212.938 77.1621 213.389C77.1621 213.84 77.5312 214.209 77.9824 214.209ZM77.3945 223H78.5703V215.631H77.3945V223ZM80.6416 217.647C80.6416 218.714 81.2705 219.309 82.6514 219.644L83.916 219.951C84.7021 220.143 85.085 220.484 85.085 220.99C85.085 221.667 84.374 222.139 83.3828 222.139C82.4395 222.139 81.8516 221.742 81.6533 221.12H80.4434C80.5732 222.344 81.7012 223.13 83.3418 223.13C85.0166 223.13 86.2949 222.221 86.2949 220.901C86.2949 219.842 85.625 219.24 84.2373 218.905L83.1025 218.632C82.2344 218.42 81.8242 218.105 81.8242 217.6C81.8242 216.943 82.5078 216.499 83.3828 216.499C84.2715 216.499 84.8457 216.889 85.0029 217.477H86.165C86.0078 216.267 84.9346 215.501 83.3896 215.501C81.8242 215.501 80.6416 216.424 80.6416 217.647ZM92.0918 223H93.2676V218.639C93.2676 217.347 94.0264 216.561 95.2021 216.561C96.3779 216.561 96.9385 217.189 96.9385 218.516V223H98.1143V218.229C98.1143 216.479 97.1914 215.501 95.5371 215.501C94.4092 215.501 93.6914 215.979 93.3223 216.793H93.2129V215.631H92.0918V223ZM103.296 223.13C105.395 223.13 106.693 221.681 106.693 219.315C106.693 216.943 105.395 215.501 103.296 215.501C101.197 215.501 99.8984 216.943 99.8984 219.315C99.8984 221.681 101.197 223.13 103.296 223.13ZM103.296 222.07C101.901 222.07 101.115 221.059 101.115 219.315C101.115 217.565 101.901 216.561 103.296 216.561C104.69 216.561 105.477 217.565 105.477 219.315C105.477 221.059 104.69 222.07 103.296 222.07ZM118.451 215.631H117.275V219.992C117.275 221.284 116.564 222.057 115.266 222.057C114.09 222.057 113.598 221.441 113.598 220.115V215.631H112.422V220.402C112.422 222.146 113.283 223.13 114.938 223.13C116.065 223.13 116.852 222.665 117.221 221.845H117.33V223H118.451V215.631ZM120.666 223H121.842V218.639C121.842 217.347 122.601 216.561 123.776 216.561C124.952 216.561 125.513 217.189 125.513 218.516V223H126.688V218.229C126.688 216.479 125.766 215.501 124.111 215.501C122.983 215.501 122.266 215.979 121.896 216.793H121.787V215.631H120.666V223ZM131.569 223.13C132.588 223.13 133.463 222.645 133.928 221.824H134.037V223H135.158V212.705H133.982V216.793H133.88C133.463 215.986 132.595 215.501 131.569 215.501C129.696 215.501 128.473 217.005 128.473 219.315C128.473 221.633 129.683 223.13 131.569 223.13ZM131.843 216.561C133.176 216.561 134.01 217.627 134.01 219.315C134.01 221.018 133.183 222.07 131.843 222.07C130.496 222.07 129.689 221.038 129.689 219.315C129.689 217.6 130.503 216.561 131.843 216.561ZM142.322 221.093C142.015 221.742 141.372 222.091 140.422 222.091C139.171 222.091 138.357 221.168 138.296 219.712V219.657H143.594V219.206C143.594 216.916 142.384 215.501 140.395 215.501C138.371 215.501 137.072 217.005 137.072 219.322C137.072 221.653 138.351 223.13 140.395 223.13C142.008 223.13 143.156 222.351 143.498 221.093H142.322ZM140.381 216.54C141.55 216.54 142.329 217.401 142.356 218.707H138.296C138.385 217.401 139.205 216.54 140.381 216.54ZM145.439 223H146.615V218.434C146.615 217.395 147.429 216.643 148.55 216.643C148.782 216.643 149.206 216.684 149.302 216.711V215.535C149.151 215.515 148.905 215.501 148.714 215.501C147.736 215.501 146.889 216.007 146.67 216.725H146.561V215.631H145.439V223ZM150.84 223H152.016V212.705H150.84V223ZM154.928 225.666C156.233 225.666 156.821 225.16 157.45 223.451L160.328 215.631H159.077L157.061 221.694H156.951L154.928 215.631H153.656L156.384 223.007L156.247 223.444C155.939 224.333 155.57 224.654 154.894 224.654C154.729 224.654 154.545 224.647 154.401 224.62V225.625C154.565 225.652 154.771 225.666 154.928 225.666ZM162.516 214.209C162.967 214.209 163.336 213.84 163.336 213.389C163.336 212.938 162.967 212.568 162.516 212.568C162.064 212.568 161.695 212.938 161.695 213.389C161.695 213.84 162.064 214.209 162.516 214.209ZM161.928 223H163.104V215.631H161.928V223ZM165.346 223H166.521V218.639C166.521 217.347 167.28 216.561 168.456 216.561C169.632 216.561 170.192 217.189 170.192 218.516V223H171.368V218.229C171.368 216.479 170.445 215.501 168.791 215.501C167.663 215.501 166.945 215.979 166.576 216.793H166.467V215.631H165.346V223ZM176.557 225.83C178.566 225.83 179.838 224.777 179.838 223.13V215.631H178.717V216.8H178.607C178.184 216.007 177.274 215.501 176.242 215.501C174.349 215.501 173.152 216.998 173.152 219.206C173.152 221.414 174.335 222.891 176.242 222.891C177.254 222.891 178.088 222.433 178.553 221.619H178.662V223.068C178.662 224.155 177.876 224.805 176.557 224.805C175.497 224.805 174.841 224.415 174.711 223.813H173.467C173.645 225.03 174.779 225.83 176.557 225.83ZM176.502 221.852C175.135 221.852 174.369 220.812 174.369 219.206C174.369 217.6 175.135 216.561 176.502 216.561C177.862 216.561 178.689 217.6 178.689 219.206C178.689 220.812 177.869 221.852 176.502 221.852ZM188.731 223.13C189.75 223.13 190.625 222.645 191.09 221.824H191.199V223H192.32V212.705H191.145V216.793H191.042C190.625 215.986 189.757 215.501 188.731 215.501C186.858 215.501 185.635 217.005 185.635 219.315C185.635 221.633 186.845 223.13 188.731 223.13ZM189.005 216.561C190.338 216.561 191.172 217.627 191.172 219.315C191.172 221.018 190.345 222.07 189.005 222.07C187.658 222.07 186.852 221.038 186.852 219.315C186.852 217.6 187.665 216.561 189.005 216.561ZM195.219 214.209C195.67 214.209 196.039 213.84 196.039 213.389C196.039 212.938 195.67 212.568 195.219 212.568C194.768 212.568 194.398 212.938 194.398 213.389C194.398 213.84 194.768 214.209 195.219 214.209ZM194.631 223H195.807V215.631H194.631V223ZM197.878 217.647C197.878 218.714 198.507 219.309 199.888 219.644L201.152 219.951C201.938 220.143 202.321 220.484 202.321 220.99C202.321 221.667 201.61 222.139 200.619 222.139C199.676 222.139 199.088 221.742 198.89 221.12H197.68C197.81 222.344 198.938 223.13 200.578 223.13C202.253 223.13 203.531 222.221 203.531 220.901C203.531 219.842 202.861 219.24 201.474 218.905L200.339 218.632C199.471 218.42 199.061 218.105 199.061 217.6C199.061 216.943 199.744 216.499 200.619 216.499C201.508 216.499 202.082 216.889 202.239 217.477H203.401C203.244 216.267 202.171 215.501 200.626 215.501C199.061 215.501 197.878 216.424 197.878 217.647ZM210.258 221.093C209.95 221.742 209.308 222.091 208.357 222.091C207.106 222.091 206.293 221.168 206.231 219.712V219.657H211.529V219.206C211.529 216.916 210.319 215.501 208.33 215.501C206.307 215.501 205.008 217.005 205.008 219.322C205.008 221.653 206.286 223.13 208.33 223.13C209.943 223.13 211.092 222.351 211.434 221.093H210.258ZM208.316 216.54C209.485 216.54 210.265 217.401 210.292 218.707H206.231C206.32 217.401 207.141 216.54 208.316 216.54ZM215.426 223.13C216.41 223.13 217.217 222.699 217.695 221.913H217.805V223H218.926V217.955C218.926 216.424 217.921 215.501 216.123 215.501C214.551 215.501 213.389 216.28 213.231 217.463H214.421C214.585 216.882 215.2 216.547 216.082 216.547C217.183 216.547 217.75 217.046 217.75 217.955V218.625L215.624 218.755C213.908 218.857 212.938 219.616 212.938 220.936C212.938 222.282 213.997 223.13 215.426 223.13ZM215.645 222.098C214.79 222.098 214.154 221.66 214.154 220.908C214.154 220.17 214.646 219.78 215.768 219.705L217.75 219.575V220.252C217.75 221.305 216.854 222.098 215.645 222.098ZM220.929 217.647C220.929 218.714 221.558 219.309 222.938 219.644L224.203 219.951C224.989 220.143 225.372 220.484 225.372 220.99C225.372 221.667 224.661 222.139 223.67 222.139C222.727 222.139 222.139 221.742 221.94 221.12H220.73C220.86 222.344 221.988 223.13 223.629 223.13C225.304 223.13 226.582 222.221 226.582 220.901C226.582 219.842 225.912 219.24 224.524 218.905L223.39 218.632C222.521 218.42 222.111 218.105 222.111 217.6C222.111 216.943 222.795 216.499 223.67 216.499C224.559 216.499 225.133 216.889 225.29 217.477H226.452C226.295 216.267 225.222 215.501 223.677 215.501C222.111 215.501 220.929 216.424 220.929 217.647ZM233.309 221.093C233.001 221.742 232.358 222.091 231.408 222.091C230.157 222.091 229.344 221.168 229.282 219.712V219.657H234.58V219.206C234.58 216.916 233.37 215.501 231.381 215.501C229.357 215.501 228.059 217.005 228.059 219.322C228.059 221.653 229.337 223.13 231.381 223.13C232.994 223.13 234.143 222.351 234.484 221.093H233.309ZM231.367 216.54C232.536 216.54 233.315 217.401 233.343 218.707H229.282C229.371 217.401 230.191 216.54 231.367 216.54ZM242.428 223.13C243.412 223.13 244.219 222.699 244.697 221.913H244.807V223H245.928V217.955C245.928 216.424 244.923 215.501 243.125 215.501C241.553 215.501 240.391 216.28 240.233 217.463H241.423C241.587 216.882 242.202 216.547 243.084 216.547C244.185 216.547 244.752 217.046 244.752 217.955V218.625L242.626 218.755C240.91 218.857 239.939 219.616 239.939 220.936C239.939 222.282 240.999 223.13 242.428 223.13ZM242.646 222.098C241.792 222.098 241.156 221.66 241.156 220.908C241.156 220.17 241.648 219.78 242.77 219.705L244.752 219.575V220.252C244.752 221.305 243.856 222.098 242.646 222.098ZM250.829 223.13C251.848 223.13 252.723 222.645 253.188 221.824H253.297V223H254.418V212.705H253.242V216.793H253.14C252.723 215.986 251.854 215.501 250.829 215.501C248.956 215.501 247.732 217.005 247.732 219.315C247.732 221.633 248.942 223.13 250.829 223.13ZM251.103 216.561C252.436 216.561 253.27 217.627 253.27 219.315C253.27 221.018 252.442 222.07 251.103 222.07C249.756 222.07 248.949 221.038 248.949 219.315C248.949 217.6 249.763 216.561 251.103 216.561ZM259.429 223.13C260.447 223.13 261.322 222.645 261.787 221.824H261.896V223H263.018V212.705H261.842V216.793H261.739C261.322 215.986 260.454 215.501 259.429 215.501C257.556 215.501 256.332 217.005 256.332 219.315C256.332 221.633 257.542 223.13 259.429 223.13ZM259.702 216.561C261.035 216.561 261.869 217.627 261.869 219.315C261.869 221.018 261.042 222.07 259.702 222.07C258.355 222.07 257.549 221.038 257.549 219.315C257.549 217.6 258.362 216.561 259.702 216.561ZM270.182 221.093C269.874 221.742 269.231 222.091 268.281 222.091C267.03 222.091 266.217 221.168 266.155 219.712V219.657H271.453V219.206C271.453 216.916 270.243 215.501 268.254 215.501C266.23 215.501 264.932 217.005 264.932 219.322C264.932 221.653 266.21 223.13 268.254 223.13C269.867 223.13 271.016 222.351 271.357 221.093H270.182ZM268.24 216.54C269.409 216.54 270.188 217.401 270.216 218.707H266.155C266.244 217.401 267.064 216.54 268.24 216.54ZM276.026 223.13C277.045 223.13 277.92 222.645 278.385 221.824H278.494V223H279.615V212.705H278.439V216.793H278.337C277.92 215.986 277.052 215.501 276.026 215.501C274.153 215.501 272.93 217.005 272.93 219.315C272.93 221.633 274.14 223.13 276.026 223.13ZM276.3 216.561C277.633 216.561 278.467 217.627 278.467 219.315C278.467 221.018 277.64 222.07 276.3 222.07C274.953 222.07 274.146 221.038 274.146 219.315C274.146 217.6 274.96 216.561 276.3 216.561ZM286.342 213.724V215.631H285.152V216.615H286.342V221.086C286.342 222.494 286.95 223.055 288.468 223.055C288.7 223.055 288.926 223.027 289.158 222.986V221.995C288.939 222.016 288.823 222.022 288.611 222.022C287.846 222.022 287.518 221.653 287.518 220.785V216.615H289.158V215.631H287.518V213.724H286.342ZM293.854 223.13C295.953 223.13 297.252 221.681 297.252 219.315C297.252 216.943 295.953 215.501 293.854 215.501C291.756 215.501 290.457 216.943 290.457 219.315C290.457 221.681 291.756 223.13 293.854 223.13ZM293.854 222.07C292.46 222.07 291.674 221.059 291.674 219.315C291.674 217.565 292.46 216.561 293.854 216.561C295.249 216.561 296.035 217.565 296.035 219.315C296.035 221.059 295.249 222.07 293.854 222.07ZM303.541 213.724V215.631H302.352V216.615H303.541V221.086C303.541 222.494 304.149 223.055 305.667 223.055C305.899 223.055 306.125 223.027 306.357 222.986V221.995C306.139 222.016 306.022 222.022 305.811 222.022C305.045 222.022 304.717 221.653 304.717 220.785V216.615H306.357V215.631H304.717V213.724H303.541ZM308.203 223H309.379V218.639C309.379 217.395 310.104 216.561 311.423 216.561C312.537 216.561 313.125 217.21 313.125 218.516V223H314.301V218.229C314.301 216.499 313.316 215.501 311.758 215.501C310.63 215.501 309.857 215.979 309.488 216.793H309.379V212.705H308.203V223ZM321.328 221.093C321.021 221.742 320.378 222.091 319.428 222.091C318.177 222.091 317.363 221.168 317.302 219.712V219.657H322.6V219.206C322.6 216.916 321.39 215.501 319.4 215.501C317.377 215.501 316.078 217.005 316.078 219.322C316.078 221.653 317.356 223.13 319.4 223.13C321.014 223.13 322.162 222.351 322.504 221.093H321.328ZM319.387 216.54C320.556 216.54 321.335 217.401 321.362 218.707H317.302C317.391 217.401 318.211 216.54 319.387 216.54ZM328.226 217.647C328.226 218.714 328.854 219.309 330.235 219.644L331.5 219.951C332.286 220.143 332.669 220.484 332.669 220.99C332.669 221.667 331.958 222.139 330.967 222.139C330.023 222.139 329.436 221.742 329.237 221.12H328.027C328.157 222.344 329.285 223.13 330.926 223.13C332.601 223.13 333.879 222.221 333.879 220.901C333.879 219.842 333.209 219.24 331.821 218.905L330.687 218.632C329.818 218.42 329.408 218.105 329.408 217.6C329.408 216.943 330.092 216.499 330.967 216.499C331.855 216.499 332.43 216.889 332.587 217.477H333.749C333.592 216.267 332.519 215.501 330.974 215.501C329.408 215.501 328.226 216.424 328.226 217.647ZM336.148 225.666C337.454 225.666 338.042 225.16 338.671 223.451L341.549 215.631H340.298L338.281 221.694H338.172L336.148 215.631H334.877L337.604 223.007L337.468 223.444C337.16 224.333 336.791 224.654 336.114 224.654C335.95 224.654 335.766 224.647 335.622 224.62V225.625C335.786 225.652 335.991 225.666 336.148 225.666ZM342.745 217.647C342.745 218.714 343.374 219.309 344.755 219.644L346.02 219.951C346.806 220.143 347.188 220.484 347.188 220.99C347.188 221.667 346.478 222.139 345.486 222.139C344.543 222.139 343.955 221.742 343.757 221.12H342.547C342.677 222.344 343.805 223.13 345.445 223.13C347.12 223.13 348.398 222.221 348.398 220.901C348.398 219.842 347.729 219.24 346.341 218.905L345.206 218.632C344.338 218.42 343.928 218.105 343.928 217.6C343.928 216.943 344.611 216.499 345.486 216.499C346.375 216.499 346.949 216.889 347.106 217.477H348.269C348.111 216.267 347.038 215.501 345.493 215.501C343.928 215.501 342.745 216.424 342.745 217.647ZM350.668 213.724V215.631H349.479V216.615H350.668V221.086C350.668 222.494 351.276 223.055 352.794 223.055C353.026 223.055 353.252 223.027 353.484 222.986V221.995C353.266 222.016 353.149 222.022 352.938 222.022C352.172 222.022 351.844 221.653 351.844 220.785V216.615H353.484V215.631H351.844V213.724H350.668ZM360.033 221.093C359.726 221.742 359.083 222.091 358.133 222.091C356.882 222.091 356.068 221.168 356.007 219.712V219.657H361.305V219.206C361.305 216.916 360.095 215.501 358.105 215.501C356.082 215.501 354.783 217.005 354.783 219.322C354.783 221.653 356.062 223.13 358.105 223.13C359.719 223.13 360.867 222.351 361.209 221.093H360.033ZM358.092 216.54C359.261 216.54 360.04 217.401 360.067 218.707H356.007C356.096 217.401 356.916 216.54 358.092 216.54ZM363.15 223H364.326V218.434C364.326 217.395 365.071 216.561 366.035 216.561C366.965 216.561 367.573 217.121 367.573 217.996V223H368.749V218.263C368.749 217.326 369.433 216.561 370.458 216.561C371.497 216.561 372.01 217.094 372.01 218.181V223H373.186V217.907C373.186 216.362 372.345 215.501 370.841 215.501C369.822 215.501 368.981 216.014 368.585 216.793H368.476C368.134 216.027 367.437 215.501 366.438 215.501C365.454 215.501 364.716 215.973 364.381 216.793H364.271V215.631H363.15V223ZM376.303 223.068C376.795 223.068 377.191 222.665 377.191 222.18C377.191 221.688 376.795 221.291 376.303 221.291C375.817 221.291 375.414 221.688 375.414 222.18C375.414 222.665 375.817 223.068 376.303 223.068ZM387.384 223V214.243H390.562V213.136H382.975V214.243H386.153V223H387.384ZM393.974 223.13C396.072 223.13 397.371 221.681 397.371 219.315C397.371 216.943 396.072 215.501 393.974 215.501C391.875 215.501 390.576 216.943 390.576 219.315C390.576 221.681 391.875 223.13 393.974 223.13ZM393.974 222.07C392.579 222.07 391.793 221.059 391.793 219.315C391.793 217.565 392.579 216.561 393.974 216.561C395.368 216.561 396.154 217.565 396.154 219.315C396.154 221.059 395.368 222.07 393.974 222.07ZM405.219 223.13C406.203 223.13 407.01 222.699 407.488 221.913H407.598V223H408.719V217.955C408.719 216.424 407.714 215.501 405.916 215.501C404.344 215.501 403.182 216.28 403.024 217.463H404.214C404.378 216.882 404.993 216.547 405.875 216.547C406.976 216.547 407.543 217.046 407.543 217.955V218.625L405.417 218.755C403.701 218.857 402.73 219.616 402.73 220.936C402.73 222.282 403.79 223.13 405.219 223.13ZM405.438 222.098C404.583 222.098 403.947 221.66 403.947 220.908C403.947 220.17 404.439 219.78 405.561 219.705L407.543 219.575V220.252C407.543 221.305 406.647 222.098 405.438 222.098ZM413.62 223.13C414.639 223.13 415.514 222.645 415.979 221.824H416.088V223H417.209V212.705H416.033V216.793H415.931C415.514 215.986 414.646 215.501 413.62 215.501C411.747 215.501 410.523 217.005 410.523 219.315C410.523 221.633 411.733 223.13 413.62 223.13ZM413.894 216.561C415.227 216.561 416.061 217.627 416.061 219.315C416.061 221.018 415.233 222.07 413.894 222.07C412.547 222.07 411.74 221.038 411.74 219.315C411.74 217.6 412.554 216.561 413.894 216.561ZM422.22 223.13C423.238 223.13 424.113 222.645 424.578 221.824H424.688V223H425.809V212.705H424.633V216.793H424.53C424.113 215.986 423.245 215.501 422.22 215.501C420.347 215.501 419.123 217.005 419.123 219.315C419.123 221.633 420.333 223.13 422.22 223.13ZM422.493 216.561C423.826 216.561 424.66 217.627 424.66 219.315C424.66 221.018 423.833 222.07 422.493 222.07C421.146 222.07 420.34 221.038 420.34 219.315C420.34 217.6 421.153 216.561 422.493 216.561ZM432.043 223H433.219V218.639C433.219 217.347 433.978 216.561 435.153 216.561C436.329 216.561 436.89 217.189 436.89 218.516V223H438.065V218.229C438.065 216.479 437.143 215.501 435.488 215.501C434.36 215.501 433.643 215.979 433.273 216.793H433.164V215.631H432.043V223ZM445.1 221.093C444.792 221.742 444.149 222.091 443.199 222.091C441.948 222.091 441.135 221.168 441.073 219.712V219.657H446.371V219.206C446.371 216.916 445.161 215.501 443.172 215.501C441.148 215.501 439.85 217.005 439.85 219.322C439.85 221.653 441.128 223.13 443.172 223.13C444.785 223.13 445.934 222.351 446.275 221.093H445.1ZM443.158 216.54C444.327 216.54 445.106 217.401 445.134 218.707H441.073C441.162 217.401 441.982 216.54 443.158 216.54ZM457.486 215.631H456.304L454.854 221.523H454.745L453.098 215.631H451.97L450.322 221.523H450.213L448.764 215.631H447.574L449.639 223H450.828L452.469 217.299H452.578L454.226 223H455.422L457.486 215.631ZM466.038 223.13C468.137 223.13 469.436 221.681 469.436 219.315C469.436 216.943 468.137 215.501 466.038 215.501C463.939 215.501 462.641 216.943 462.641 219.315C462.641 221.681 463.939 223.13 466.038 223.13ZM466.038 222.07C464.644 222.07 463.857 221.059 463.857 219.315C463.857 217.565 464.644 216.561 466.038 216.561C467.433 216.561 468.219 217.565 468.219 219.315C468.219 221.059 467.433 222.07 466.038 222.07ZM471.281 223H472.457V218.639C472.457 217.347 473.216 216.561 474.392 216.561C475.567 216.561 476.128 217.189 476.128 218.516V223H477.304V218.229C477.304 216.479 476.381 215.501 474.727 215.501C473.599 215.501 472.881 215.979 472.512 216.793H472.402V215.631H471.281V223ZM484.338 221.093C484.03 221.742 483.388 222.091 482.438 222.091C481.187 222.091 480.373 221.168 480.312 219.712V219.657H485.609V219.206C485.609 216.916 484.399 215.501 482.41 215.501C480.387 215.501 479.088 217.005 479.088 219.322C479.088 221.653 480.366 223.13 482.41 223.13C484.023 223.13 485.172 222.351 485.514 221.093H484.338ZM482.396 216.54C483.565 216.54 484.345 217.401 484.372 218.707H480.312C480.4 217.401 481.221 216.54 482.396 216.54ZM497.504 217.887C497.299 216.574 496.205 215.501 494.414 215.501C492.35 215.501 491.037 216.991 491.037 219.288C491.037 221.633 492.356 223.13 494.421 223.13C496.191 223.13 497.292 222.132 497.504 220.778H496.314C496.096 221.612 495.405 222.07 494.414 222.07C493.102 222.07 492.254 220.99 492.254 219.288C492.254 217.62 493.088 216.561 494.414 216.561C495.474 216.561 496.123 217.155 496.314 217.887H497.504ZM499.309 223H500.484V212.705H499.309V223ZM503.383 214.209C503.834 214.209 504.203 213.84 504.203 213.389C504.203 212.938 503.834 212.568 503.383 212.568C502.932 212.568 502.562 212.938 502.562 213.389C502.562 213.84 502.932 214.209 503.383 214.209ZM502.795 223H503.971V215.631H502.795V223ZM512.311 217.887C512.105 216.574 511.012 215.501 509.221 215.501C507.156 215.501 505.844 216.991 505.844 219.288C505.844 221.633 507.163 223.13 509.228 223.13C510.998 223.13 512.099 222.132 512.311 220.778H511.121C510.902 221.612 510.212 222.07 509.221 222.07C507.908 222.07 507.061 220.99 507.061 219.288C507.061 217.62 507.895 216.561 509.221 216.561C510.28 216.561 510.93 217.155 511.121 217.887H512.311ZM515.4 218.851H515.291V212.705H514.115V223H515.291V220.204L515.995 219.548L518.757 223H520.254L516.87 218.789L520.042 215.631H518.6L515.4 218.851ZM528.628 223.13C530.727 223.13 532.025 221.681 532.025 219.315C532.025 216.943 530.727 215.501 528.628 215.501C526.529 215.501 525.23 216.943 525.23 219.315C525.23 221.681 526.529 223.13 528.628 223.13ZM528.628 222.07C527.233 222.07 526.447 221.059 526.447 219.315C526.447 217.565 527.233 216.561 528.628 216.561C530.022 216.561 530.809 217.565 530.809 219.315C530.809 221.059 530.022 222.07 528.628 222.07ZM533.871 223H535.047V218.639C535.047 217.347 535.806 216.561 536.981 216.561C538.157 216.561 538.718 217.189 538.718 218.516V223H539.894V218.229C539.894 216.479 538.971 215.501 537.316 215.501C536.188 215.501 535.471 215.979 535.102 216.793H534.992V215.631H533.871V223ZM547.099 213.136L545.889 217.025H547.194L547.98 213.136H547.099ZM549.717 213.136L548.644 217.025H549.949L550.599 213.136H549.717ZM556.915 219.664H559.663V218.557H556.915V215.672H555.808V218.557H553.06V219.664H555.808V222.549H556.915V219.664ZM572.521 223H573.813L570.177 213.136H568.96L565.323 223H566.615L567.606 220.177H571.53L572.521 223ZM569.514 214.729H569.623L571.168 219.131H567.969L569.514 214.729ZM577.71 223.13C578.729 223.13 579.604 222.645 580.068 221.824H580.178V223H581.299V212.705H580.123V216.793H580.021C579.604 215.986 578.735 215.501 577.71 215.501C575.837 215.501 574.613 217.005 574.613 219.315C574.613 221.633 575.823 223.13 577.71 223.13ZM577.983 216.561C579.316 216.561 580.15 217.627 580.15 219.315C580.15 221.018 579.323 222.07 577.983 222.07C576.637 222.07 575.83 221.038 575.83 219.315C575.83 217.6 576.644 216.561 577.983 216.561ZM586.31 223.13C587.328 223.13 588.203 222.645 588.668 221.824H588.777V223H589.898V212.705H588.723V216.793H588.62C588.203 215.986 587.335 215.501 586.31 215.501C584.437 215.501 583.213 217.005 583.213 219.315C583.213 221.633 584.423 223.13 586.31 223.13ZM586.583 216.561C587.916 216.561 588.75 217.627 588.75 219.315C588.75 221.018 587.923 222.07 586.583 222.07C585.236 222.07 584.43 221.038 584.43 219.315C584.43 217.6 585.243 216.561 586.583 216.561ZM593.173 217.025L594.246 213.136H592.94L592.291 217.025H593.173ZM595.791 217.025L597.001 213.136H595.695L594.909 217.025H595.791ZM606.729 223.13C608.595 223.13 609.818 221.619 609.818 219.315C609.818 216.998 608.602 215.501 606.729 215.501C605.717 215.501 604.821 216 604.418 216.793H604.309V212.705H603.133V223H604.254V221.824H604.363C604.828 222.645 605.703 223.13 606.729 223.13ZM606.455 216.561C607.802 216.561 608.602 217.593 608.602 219.315C608.602 221.038 607.802 222.07 606.455 222.07C605.115 222.07 604.281 221.018 604.281 219.315C604.281 217.613 605.115 216.561 606.455 216.561ZM617.625 215.631H616.449V219.992C616.449 221.284 615.738 222.057 614.439 222.057C613.264 222.057 612.771 221.441 612.771 220.115V215.631H611.596V220.402C611.596 222.146 612.457 223.13 614.111 223.13C615.239 223.13 616.025 222.665 616.395 221.845H616.504V223H617.625V215.631ZM620.332 213.724V215.631H619.143V216.615H620.332V221.086C620.332 222.494 620.94 223.055 622.458 223.055C622.69 223.055 622.916 223.027 623.148 222.986V221.995C622.93 222.016 622.813 222.022 622.602 222.022C621.836 222.022 621.508 221.653 621.508 220.785V216.615H623.148V215.631H621.508V213.724H620.332ZM625.418 213.724V215.631H624.229V216.615H625.418V221.086C625.418 222.494 626.026 223.055 627.544 223.055C627.776 223.055 628.002 223.027 628.234 222.986V221.995C628.016 222.016 627.899 222.022 627.688 222.022C626.922 222.022 626.594 221.653 626.594 220.785V216.615H628.234V215.631H626.594V213.724H625.418ZM632.931 223.13C635.029 223.13 636.328 221.681 636.328 219.315C636.328 216.943 635.029 215.501 632.931 215.501C630.832 215.501 629.533 216.943 629.533 219.315C629.533 221.681 630.832 223.13 632.931 223.13ZM632.931 222.07C631.536 222.07 630.75 221.059 630.75 219.315C630.75 217.565 631.536 216.561 632.931 216.561C634.325 216.561 635.111 217.565 635.111 219.315C635.111 221.059 634.325 222.07 632.931 222.07ZM638.174 223H639.35V218.639C639.35 217.347 640.108 216.561 641.284 216.561C642.46 216.561 643.021 217.189 643.021 218.516V223H644.196V218.229C644.196 216.479 643.273 215.501 641.619 215.501C640.491 215.501 639.773 215.979 639.404 216.793H639.295V215.631H638.174V223ZM647.32 223.068C647.812 223.068 648.209 222.665 648.209 222.18C648.209 221.688 647.812 221.291 647.32 221.291C646.835 221.291 646.432 221.688 646.432 222.18C646.432 222.665 646.835 223.068 647.32 223.068Z" fill="#8C8C8C"/>
</g>
<defs>
<filter id="filter0_d" x="0" y="0" width="995" height="385" filterUnits="userSpaceOnUse" color-interpolation-filters="sRGB">
<feFlood flood-opacity="0" result="BackgroundImageFix"/>
<feColorMatrix in="SourceAlpha" type="matrix" values="0 0 0 0 0 0 0 0 0 0 0 0 0 0 0 0 0 0 127 0" result="hardAlpha"/>
<feMorphology radius="4" operator="erode" in="SourceAlpha" result="effect1_dropShadow"/>
<feOffset dy="3"/>
<feGaussianBlur stdDeviation="3"/>
<feColorMatrix type="matrix" values="0 0 0 0 0 0 0 0 0 0 0 0 0 0 0 0 0 0 0.12 0"/>
<feBlend mode="normal" in2="BackgroundImageFix" result="effect1_dropShadow"/>
<feBlend mode="normal" in="SourceGraphic" in2="effect1_dropShadow" result="shape"/>
</filter>
<linearGradient id="paint0_linear" x1="1153" y1="762.135" x2="907.255" y2="95.6743" gradientUnits="userSpaceOnUse">
<stop stop-color="#EEFCFB"/>
<stop offset="1" stop-color="#92D4D1" stop-opacity="0"/>
</linearGradient>
<clipPath id="clip0">
<rect width="991" height="380" fill="white" transform="translate(2)"/>
</clipPath>
<clipPath id="clip1">
<rect width="875" height="22" fill="white" transform="translate(2 40)"/>
</clipPath>
<clipPath id="clip2">
<rect width="875" height="22" fill="white" transform="translate(2 169)"/>
</clipPath>
</defs>
</svg>
