<svg width="702" height="640" viewBox="0 0 702 640" fill="none" xmlns="http://www.w3.org/2000/svg">
<g opacity="0.7" clip-path="url(#clip0)">
<path d="M642.517 588.06H0.646545" stroke="#76C7E4" stroke-width="0.75" stroke-miterlimit="10" stroke-linecap="round"/>
<path d="M127.049 228.71H39.2784V302.324H127.049V228.71Z" stroke="#E7F2F6" stroke-width="2" stroke-miterlimit="10" stroke-linecap="round" stroke-linejoin="round"/>
<path d="M120.098 236.136H46.2289V294.736H120.098V236.136Z" stroke="#E7F2F6" stroke-miterlimit="10" stroke-linecap="round" stroke-linejoin="round"/>
<path d="M92.2961 247.921H83.0827H73.8692L58.6751 274.396C58.6751 274.396 65.464 283.274 83.0827 283.274C100.701 283.274 107.49 274.396 107.49 274.396L92.2961 247.921Z" fill="#E7F2F6"/>
<path d="M73.3843 270.36C75.4856 273.589 79.2033 275.687 82.921 275.687C84.5374 275.687 86.3154 275.364 87.4469 274.234C88.5784 273.104 88.9017 271.006 87.7702 269.876C86.1538 268.423 83.5676 269.391 81.4663 269.068C79.5266 268.746 77.9102 266.97 77.7486 264.871C77.7486 263.741 78.0718 262.45 77.9102 261.32C77.7486 260.028 76.7787 258.898 75.4856 258.575C72.7377 257.607 71.6063 262.773 71.6063 264.548C71.6063 266.647 72.2528 268.584 73.3843 270.36Z" fill="white"/>
<path d="M144.506 326.861H21.8214V588.383H144.506V326.861Z" stroke="#E7F2F6" stroke-miterlimit="10" stroke-linecap="round" stroke-linejoin="round"/>
<path d="M92.6194 302.162H73.546V326.861H92.6194V302.162Z" stroke="#E7F2F6" stroke-miterlimit="10" stroke-linecap="round" stroke-linejoin="round"/>
<path d="M131.736 377.067H34.7525" stroke="#E7F2F6" stroke-miterlimit="10" stroke-linecap="round" stroke-linejoin="round"/>
<path d="M131.736 370.287H34.7525" stroke="#E7F2F6" stroke-miterlimit="10" stroke-linecap="round" stroke-linejoin="round"/>
<path d="M131.736 561.908H34.7525" stroke="#E7F2F6" stroke-miterlimit="10" stroke-linecap="round" stroke-linejoin="round"/>
<path d="M131.736 555.289H34.7525" stroke="#E7F2F6" stroke-miterlimit="10" stroke-linecap="round" stroke-linejoin="round"/>
<path d="M131.736 471.021H34.7525" stroke="#E7F2F6" stroke-miterlimit="10" stroke-linecap="round" stroke-linejoin="round"/>
<path d="M55.2807 570.948H34.7525V582.894H55.2807V570.948Z" stroke="#E7F2F6" stroke-miterlimit="10" stroke-linecap="round" stroke-linejoin="round"/>
<path d="M55.604 356.242H34.7525V363.668H55.604V356.242Z" stroke="#E7F2F6" stroke-miterlimit="10" stroke-linecap="round" stroke-linejoin="round"/>
<path d="M55.604 345.588H34.7525V353.013H55.604V345.588Z" stroke="#E7F2F6" stroke-miterlimit="10" stroke-linecap="round" stroke-linejoin="round"/>
<path d="M41.8647 338.807C41.8647 337.032 40.4099 335.417 38.4702 335.417C36.6922 335.417 35.0758 336.87 35.0758 338.807C35.0758 340.583 36.5306 342.198 38.4702 342.198C40.4099 342.198 41.8647 340.745 41.8647 338.807Z" stroke="#E7F2F6" stroke-miterlimit="10" stroke-linecap="round" stroke-linejoin="round"/>
<path d="M452.106 114.254H369.669V169.142H452.106V114.254Z" stroke="#DAEAEF" stroke-width="2.6501" stroke-miterlimit="10" stroke-linecap="round" stroke-linejoin="round"/>
<path d="M395.532 126.846H426.243" stroke="#E7F2F6" stroke-width="0.75" stroke-miterlimit="10" stroke-linecap="round"/>
<path d="M385.025 157.518H399.734" stroke="#E7F2F6" stroke-width="0.75" stroke-miterlimit="10" stroke-linecap="round"/>
<path d="M382.762 133.949H438.851" stroke="#E7F2F6" stroke-width="0.75" stroke-miterlimit="10" stroke-linecap="round"/>
<path d="M382.762 138.631H438.851" stroke="#E7F2F6" stroke-width="0.75" stroke-miterlimit="10" stroke-linecap="round"/>
<path d="M382.762 143.312H438.851" stroke="#E7F2F6" stroke-width="0.75" stroke-miterlimit="10" stroke-linecap="round"/>
<path d="M382.762 147.994H438.851" stroke="#E7F2F6" stroke-width="0.75" stroke-miterlimit="10" stroke-linecap="round"/>
<path d="M437.235 157.518C437.235 154.774 434.972 152.514 432.224 152.514C429.476 152.514 427.213 154.774 427.213 157.518C427.213 160.263 429.476 162.523 432.224 162.523C435.133 162.361 437.235 160.101 437.235 157.518Z" stroke="#E7F2F6" stroke-width="0.75" stroke-miterlimit="10" stroke-linecap="round"/>
<path d="M342.191 147.994H259.755V224.19H342.191V147.994Z" stroke="#DAEAEF" stroke-width="2.6501" stroke-miterlimit="10" stroke-linecap="round" stroke-linejoin="round"/>
<path d="M328.775 171.724C328.775 169.141 327.158 164.783 321.986 164.783C316.813 164.783 313.096 168.657 310.833 168.657C308.57 168.657 306.953 164.621 300.973 164.783C295.154 164.621 293.376 168.657 291.113 168.657C288.85 168.657 285.294 164.783 279.96 164.783C274.625 164.783 273.171 169.141 273.171 171.724C273.171 173.984 273.009 182.056 283.031 181.572C290.304 181.249 286.748 176.729 282.384 177.213C279.636 177.536 278.666 174.953 278.666 173.5C278.505 166.881 289.335 169.949 290.628 170.756C292.082 171.563 292.082 173.823 293.376 176.245C294.669 178.505 296.447 181.088 296.77 181.41C297.093 181.733 295.639 184.155 295.639 187.545C295.639 190.935 296.608 197.877 300.811 198.038C305.175 197.877 305.983 190.935 305.983 187.545C305.983 184.155 304.529 181.733 304.852 181.41C305.175 181.088 306.953 178.666 308.246 176.245C309.54 173.984 309.54 171.563 310.994 170.756C312.449 169.949 323.117 166.881 322.956 173.5C322.956 174.953 321.986 177.536 319.238 177.213C315.035 176.89 311.318 181.572 318.591 181.572C328.936 181.733 328.775 174.146 328.775 171.724Z" fill="#E7F2F6"/>
<path d="M320.208 207.078H280.768" stroke="#E7F2F6" stroke-width="0.75" stroke-miterlimit="10" stroke-linecap="round"/>
<path d="M312.126 213.051H288.85" stroke="#E7F2F6" stroke-width="0.75" stroke-miterlimit="10" stroke-linecap="round"/>
<path d="M225.972 120.55H143.536V175.437H225.972V120.55Z" stroke="#DAEAEF" stroke-width="2.6501" stroke-miterlimit="10" stroke-linecap="round" stroke-linejoin="round"/>
<path d="M190.573 146.379C191.381 147.509 191.381 149.285 190.573 150.415C189.765 151.545 188.148 152.03 186.694 151.707C185.885 151.384 185.077 150.9 184.269 150.577C182.653 150.092 180.713 151.384 180.228 153.16C179.743 154.774 180.551 156.711 182.006 157.68C183.461 158.81 185.239 159.133 187.017 158.81C190.088 158.487 192.998 156.388 194.291 153.482C195.584 150.577 195.422 147.187 193.644 144.442C192.189 142.021 188.472 139.438 185.562 140.891C182.329 142.344 189.765 145.249 190.573 146.379Z" fill="#E7F2F6"/>
<path d="M196.069 123.94C196.23 126.523 209.323 138.631 209.323 148.962C209.323 159.133 199.786 171.563 199.786 171.563" stroke="#E7F2F6" stroke-width="0.75" stroke-miterlimit="10" stroke-linecap="round"/>
<path d="M159.7 125.07C159.7 125.07 167.458 146.218 159.053 169.787" stroke="#E7F2F6" stroke-width="0.75" stroke-miterlimit="10" stroke-linecap="round"/>
<path d="M196.069 137.985C196.715 138.631 197.362 139.276 198.008 140.084C200.918 143.958 201.888 149.124 200.595 153.805C199.786 156.711 198.008 159.456 195.745 161.554C190.735 165.913 181.683 164.944 176.834 160.747C173.278 157.68 174.086 149.447 175.379 145.411C176.51 141.698 179.581 135.402 183.622 134.111C187.663 132.819 192.674 134.918 196.069 137.985Z" stroke="#E7F2F6" stroke-width="0.75" stroke-miterlimit="10" stroke-linecap="round"/>
<path d="M628.616 468.922H377.428V483.128H628.616V468.922Z" fill="#3B5A72"/>
<path d="M628.616 420.492H622.635V470.537H628.616V420.492Z" fill="#3B5A72"/>
<path d="M425.273 467.792H411.049V587.737H425.273V467.792Z" fill="#3B5A72"/>
<path d="M599.844 431.793H585.62V587.898H599.844V431.793Z" fill="#3B5A72"/>
<path d="M334.755 478.447H525.49L654.64 413.551C654.64 413.551 648.659 380.941 632.01 380.296C615.361 379.65 497.526 441.802 497.526 441.802L343.969 444.385L334.755 478.447Z" fill="#C1DAE0"/>
<path d="M143.374 480.707C143.374 480.707 137.393 588.06 128.665 588.06C119.936 588.06 139.01 470.375 139.01 470.375L143.374 480.707Z" fill="#3B5A72"/>
<path d="M188.31 480.707C188.31 480.707 194.291 588.06 203.019 588.06C211.748 588.06 192.674 470.375 192.674 470.375L188.31 480.707Z" fill="#3B5A72"/>
<path d="M114.602 482.967C117.673 486.518 122.523 487.971 127.049 489.263C148.87 495.074 171.823 497.012 194.452 494.59C198.008 494.267 201.726 493.783 204.959 492.007C208.192 490.393 210.939 487.326 211.263 483.774C211.586 480.223 209.646 476.833 206.898 474.572C204.151 472.312 200.756 471.021 197.523 469.891C182.329 464.725 166.489 461.174 150.486 459.236C139.172 457.945 126.402 454.878 117.189 463.272C111.208 468.438 108.945 476.671 114.602 482.967Z" fill="#76C7E4"/>
<path d="M370.316 442.124C370.154 443.416 358.193 526.715 345.1 558.679C336.372 558.518 336.372 558.518 336.372 558.518C336.372 558.518 340.413 453.425 343.969 441.156C353.829 442.124 370.316 442.124 370.316 442.124Z" fill="#F9AE8F"/>
<path d="M346.878 553.836C346.878 553.836 349.626 558.84 349.141 564.329C348.656 569.656 319.723 568.042 320.208 564.006C320.531 559.97 336.533 553.997 336.533 553.997C336.533 553.997 339.604 560.939 346.878 553.836Z" fill="#0B2E4E"/>
<path d="M347.525 439.219C347.525 440.51 339.928 524.294 328.451 556.903C319.723 557.226 319.723 557.226 319.723 557.226C319.723 557.226 318.106 452.133 321.178 439.703C331.038 440.187 347.525 439.219 347.525 439.219Z" fill="#F9AE8F"/>
<path d="M329.906 552.222C329.906 552.222 332.654 557.226 332.169 562.715C331.684 568.042 302.751 566.428 303.236 562.392C303.559 558.356 319.561 552.383 319.561 552.383C319.561 552.383 322.632 559.163 329.906 552.222Z" fill="#0B2E4E"/>
<path d="M444.023 293.606C450.812 293.445 468.431 291.185 473.119 284.082C477.806 276.979 474.735 238.881 459.541 236.136C444.347 233.392 436.911 237.428 434.325 239.526C431.577 241.786 415.413 264.71 417.353 283.275C419.293 302.001 444.023 293.606 444.023 293.606Z" fill="#0B2E4E"/>
<path d="M428.183 255.347C428.183 255.347 422.687 275.526 427.051 282.467C431.416 289.409 439.336 287.472 439.336 287.472L436.426 306.682L454.853 301.032L452.752 278.109C452.752 278.109 457.44 277.14 458.894 272.458C462.289 261.158 452.429 267.616 452.429 267.616C452.429 267.616 447.58 234.36 428.183 255.347Z" fill="#F9AE8F"/>
<path d="M472.634 391.112C472.634 391.112 482.17 417.102 469.562 436.151C456.955 455.039 404.907 456.976 375.812 457.783C375.812 457.783 368.376 507.828 359.809 520.419C359.809 520.419 342.352 523.002 331.684 518.644C331.684 518.644 329.906 516.706 329.906 511.379C329.906 511.379 317.621 511.863 315.843 508.958C315.843 508.958 309.863 438.896 325.703 418.878C341.544 398.86 360.294 392.887 391.652 392.403C423.334 391.919 472.634 391.112 472.634 391.112Z" fill="#76C7E4"/>
<path d="M329.906 506.375C329.906 506.375 321.016 449.066 334.755 430.824C348.495 412.582 387.773 409.031 387.773 409.031" stroke="#4C7B99" stroke-width="0.5407" stroke-miterlimit="10" stroke-linecap="round" stroke-linejoin="round"/>
<path d="M459.541 414.035C459.541 414.035 463.097 435.99 375.65 439.219C375.65 439.219 363.365 440.349 361.102 449.712C358.839 459.236 357.546 505.568 347.525 518.805" stroke="#4C7B99" stroke-width="0.5407" stroke-miterlimit="10" stroke-linecap="round" stroke-linejoin="round"/>
<path d="M435.618 414.035C435.618 414.035 425.435 422.914 434.325 431.793" stroke="#4C7B99" stroke-width="0.5407" stroke-miterlimit="10" stroke-linecap="round" stroke-linejoin="round"/>
<path d="M454.207 299.741C454.207 299.741 471.825 299.902 478.938 320.565C486.05 341.229 490.091 392.08 468.269 406.771C446.286 421.3 411.534 410.161 387.773 405.156C364.012 400.152 382.277 357.049 386.318 344.619C390.359 332.189 401.997 316.045 408.948 311.041C416.06 306.037 437.235 299.741 437.235 299.741C437.235 299.741 439.013 307.974 454.207 299.741Z" fill="#A0CBB7"/>
<path d="M386.48 394.179C386.48 394.179 384.217 358.502 407.008 349.139C407.008 349.139 401.189 333.48 411.211 326.377" stroke="#008890" stroke-width="0.5407" stroke-miterlimit="10" stroke-linecap="round" stroke-linejoin="round"/>
<path d="M452.429 346.556C452.429 346.556 444.347 363.022 447.256 377.067C434.325 375.453 405.068 389.659 405.068 389.659V407.578" stroke="#008890" stroke-width="0.5407" stroke-miterlimit="10" stroke-linecap="round" stroke-linejoin="round"/>
<path d="M395.855 395.147C392.784 394.986 389.551 395.793 387.45 397.892C385.995 399.345 385.025 401.443 385.025 403.542C385.025 405.641 386.156 407.739 387.773 409.031C389.551 410.161 391.814 410.322 394.077 410.161C396.825 409.999 399.734 409.192 402.32 408.062C403.614 407.416 404.907 407.093 405.23 405.641C405.553 404.188 405.553 402.412 405.392 400.959C405.23 400.152 405.23 398.538 404.583 397.892C402.967 395.955 398.118 395.309 395.855 395.147Z" fill="#F9AE8F"/>
<path d="M377.266 396.278C375.973 398.376 375.488 401.121 376.458 403.542C377.105 405.156 378.56 406.286 380.338 406.771C381.954 407.094 383.894 406.609 385.187 405.479C386.157 404.511 386.803 403.219 387.288 401.766C387.773 400.152 388.258 398.538 387.935 396.923C387.611 395.632 386.803 394.502 385.995 393.372C385.025 391.919 383.57 390.143 381.954 391.273C380.014 392.565 378.236 394.502 377.266 396.278Z" fill="#F9AE8F"/>
<path d="M387.45 397.892C387.45 397.892 385.348 399.183 385.348 404.349" stroke="#ED9070" stroke-width="0.5407" stroke-miterlimit="10" stroke-linecap="round" stroke-linejoin="round"/>
<path d="M540.522 563.361C540.522 563.361 544.078 576.114 543.755 587.898H492.192C492.192 587.898 487.666 578.697 497.688 577.889C507.709 577.082 515.953 576.598 519.024 574.338C522.095 572.078 521.772 564.491 521.772 564.491L540.522 563.361Z" fill="#0B2E4E"/>
<path d="M510.942 563.361C510.942 563.361 514.498 576.114 514.175 587.898H462.612C462.612 587.898 458.086 578.697 468.108 577.889C478.129 577.082 486.373 576.598 489.444 574.338C492.515 572.078 492.192 564.491 492.192 564.491L510.942 563.361Z" fill="#0B2E4E"/>
<path d="M548.766 568.849C548.766 568.849 575.598 416.941 562.829 352.852C550.221 288.763 490.899 348.655 490.899 348.655C490.899 348.655 462.127 491.523 489.283 568.849C489.444 568.849 526.783 573.208 548.766 568.849Z" fill="#76C7E4"/>
<path d="M508.356 383.524C508.356 383.524 502.052 507.02 507.709 564.975" stroke="#4C7B99" stroke-width="0.5407" stroke-miterlimit="10" stroke-linecap="round" stroke-linejoin="round"/>
<path d="M554.262 351.399C554.262 352.529 563.475 412.259 540.361 564.975" stroke="#4C7B99" stroke-width="0.5407" stroke-miterlimit="10" stroke-linecap="round" stroke-linejoin="round"/>
<path d="M534.542 355.273C534.542 355.273 537.774 384.331 555.878 380.618" stroke="#4C7B99" stroke-width="0.5407" stroke-miterlimit="10" stroke-linecap="round" stroke-linejoin="round"/>
<path d="M511.104 180.765C511.104 180.765 503.992 206.917 509.487 215.796C515.145 224.836 525.328 222.253 525.328 222.253L521.61 243.078L541.169 240.01L540.684 214.504C540.684 214.504 544.24 212.244 546.341 206.432C548.443 200.621 546.341 189.805 546.341 189.805C546.341 189.805 523.55 178.666 511.104 180.765Z" fill="#F9AE8F"/>
<path d="M540.846 214.504C546.988 212.89 548.443 209.5 548.443 209.5C562.828 178.989 549.412 167.689 542.624 163.33C535.835 158.971 497.688 156.227 497.526 177.213C497.365 198.361 531.955 185.608 531.955 185.608C531.955 185.608 537.128 198.038 534.218 205.141C531.147 212.244 508.518 210.791 507.225 209.5C507.225 209.5 504.153 229.033 513.529 230.163C522.904 231.293 530.339 228.387 532.925 224.513C535.511 220.8 536.481 210.953 538.098 205.141C539.714 199.329 539.714 195.778 542.462 195.132C545.21 194.486 545.856 197.877 545.695 200.298C545.533 202.72 543.917 204.818 541.492 206.432L540.846 214.504Z" fill="#4E3030"/>
<path d="M489.444 350.269C488.151 349.785 484.433 293.445 499.627 265.84C514.822 238.073 527.753 234.037 539.876 234.522C551.837 235.006 557.979 252.925 560.727 276.494C563.475 300.064 562.99 346.556 562.99 346.556C562.99 346.556 522.58 361.892 489.444 350.269Z" fill="#FFC73C"/>
<path d="M467.623 305.391C464.875 307.489 463.097 310.718 462.45 314.27C462.127 316.368 462.289 318.628 463.582 320.243C464.875 321.857 467.461 322.503 469.078 321.211C470.047 320.404 470.532 319.113 471.179 317.821C473.119 313.947 477.645 311.525 481.847 312.171C482.009 312.171 480.231 307.005 480.069 306.521C479.423 305.229 478.453 303.454 477.16 302.808C474.412 301.194 469.724 303.615 467.623 305.391Z" fill="#F9AE8F"/>
<path d="M502.537 306.521C502.537 306.521 482.17 298.449 474.897 301.516C474.897 301.516 481.201 313.14 478.938 320.565C476.675 327.991 475.382 333.319 494.94 338C514.498 342.682 502.537 306.521 502.537 306.521Z" fill="#FFC73C"/>
<path d="M490.414 302.485C490.414 302.485 504.153 302.324 509.164 309.104C509.164 309.104 510.457 247.114 535.511 248.405" stroke="#F4A800" stroke-width="0.5407" stroke-miterlimit="10" stroke-linecap="round" stroke-linejoin="round"/>
<path d="M543.755 255.508C543.755 255.508 549.574 318.305 533.087 338.485C533.087 338.485 527.591 348.332 490.414 336.87" stroke="#F4A800" stroke-width="0.5407" stroke-miterlimit="10" stroke-linecap="round" stroke-linejoin="round"/>
<path d="M137.232 286.987C135.13 283.113 134.484 278.593 134.807 274.234C135.292 266.97 138.363 259.544 144.182 255.024C150.001 250.504 158.891 249.696 164.711 254.217C169.075 257.607 171.338 263.257 171.499 268.907C171.661 275.364 169.56 281.822 165.357 286.826C162.124 290.7 155.82 296.028 150.325 296.028C148.062 296.028 145.152 294.413 143.212 293.283C140.95 291.83 138.687 289.57 137.232 286.987Z" fill="#4E3030"/>
<path d="M161.316 311.041C163.902 314.431 167.943 316.207 171.984 317.66C169.56 323.471 162.771 326.861 156.467 326.861C150.001 326.861 144.021 324.117 138.687 320.565C145.96 313.301 144.829 296.189 143.374 286.019C145.96 286.342 153.234 293.445 155.659 293.768C158.73 294.252 158.892 294.413 158.73 297.481C158.407 302.162 158.568 307.167 161.316 311.041Z" fill="#F9AE8F"/>
<path d="M171.499 286.342C170.853 291.669 167.782 296.673 162.933 298.772C158.73 300.548 153.719 299.902 150.001 297.481C146.284 294.898 143.859 290.7 143.374 286.18C142.889 281.66 144.344 277.14 146.93 273.427C149.355 270.198 152.911 267.616 156.952 267.131C167.297 265.517 172.469 277.624 171.499 286.342Z" fill="#F9AE8F"/>
<path d="M145.475 282.952C145.314 281.822 145.152 280.853 144.667 280.046C144.182 279.239 143.212 278.593 142.243 278.754C140.95 279.077 140.303 280.53 140.303 281.983C140.303 283.113 140.465 284.405 141.273 285.373C142.081 286.342 144.667 287.31 145.314 285.696C145.475 284.889 145.475 283.92 145.475 282.952Z" fill="#F9AE8F"/>
<path d="M142.889 237.75C146.122 241.948 146.769 248.566 144.991 253.087C143.051 258.091 138.525 261.965 133.353 263.418C130.12 264.387 126.402 264.387 123.492 262.611C120.745 260.997 118.805 258.091 117.997 254.862C116.704 250.342 117.027 245.499 118.967 241.141C121.714 235.006 130.443 232.262 136.909 233.553C139.495 234.36 141.434 235.813 142.889 237.75Z" fill="#4E3030"/>
<path d="M115.734 482.967C114.117 486.518 113.794 492.814 116.865 495.72C117.997 496.85 119.613 496.85 121.068 496.366C123.816 495.397 122.846 493.944 122.846 491.684C122.846 490.554 123.169 489.424 123.331 488.294C123.654 486.841 124.301 485.55 125.594 484.743C127.049 483.936 128.827 484.258 129.958 485.227C130.605 485.873 131.574 487.81 132.868 486.518C133.999 485.227 132.221 481.514 131.736 480.223C130.766 477.64 129.796 475.541 129.958 472.797C129.958 472.151 129.958 471.344 129.312 471.182C128.988 471.021 128.665 471.182 128.18 471.344C125.917 472.151 124.301 472.797 121.876 472.635C121.714 477.317 117.512 478.931 115.734 482.967Z" fill="#F9AE8F"/>
<path d="M301.781 380.941C305.66 381.103 311.641 379.327 313.419 375.291C314.065 373.677 313.58 372.385 312.449 371.094C310.671 368.995 309.539 370.287 307.438 371.094C306.468 371.417 305.175 371.578 304.044 371.901C302.589 372.224 301.134 372.063 300.003 371.094C298.871 370.125 298.386 368.35 299.033 366.897C299.356 366.09 300.973 364.314 299.195 363.668C297.578 363.022 294.83 366.09 293.699 367.058C292.082 368.188 290.789 369.803 289.011 370.61C286.91 371.74 285.294 371.578 282.869 371.417C283.031 374.161 283.192 376.906 283.354 379.65C286.587 379.327 290.951 378.197 294.022 378.681C296.77 379.004 299.033 380.78 301.781 380.941Z" fill="#F9AE8F"/>
<path d="M223.871 446.322C223.871 447.613 223.224 544.634 231.468 578.212C240.196 579.342 240.196 579.342 240.196 579.342C240.196 579.342 264.442 471.344 251.996 433.246C241.974 432.761 223.871 446.322 223.871 446.322Z" fill="#F9AE8F"/>
<path d="M230.498 573.369C230.498 573.369 227.265 578.212 227.265 583.54C227.265 588.867 256.198 589.997 256.198 585.961C256.198 581.925 240.843 574.338 240.843 574.338C240.843 574.338 236.963 581.118 230.498 573.369Z" fill="#0B2E4E"/>
<path d="M200.918 459.882C200.918 461.173 204.797 545.119 214.819 578.374C223.547 579.019 223.547 579.019 223.547 579.019C223.547 579.019 236.64 466.662 229.528 443.577C219.506 443.577 200.918 459.882 200.918 459.882Z" fill="#F9AE8F"/>
<path d="M213.364 573.369C213.364 573.369 210.131 578.212 210.131 583.54C210.131 588.867 239.065 589.997 239.065 585.961C239.065 581.925 223.871 574.338 223.871 574.338C223.871 574.338 219.83 581.118 213.364 573.369Z" fill="#0B2E4E"/>
<path d="M227.103 542.536C227.103 542.536 234.377 465.371 230.659 450.196" stroke="#ED9070" stroke-width="0.5407" stroke-miterlimit="10" stroke-linecap="round" stroke-linejoin="round"/>
<path d="M138.687 320.243C138.687 320.243 114.764 339.292 111.37 380.619C107.975 421.784 108.783 447.29 121.553 475.218H131.898C131.898 475.218 134.484 479.577 138.848 482.321C143.213 484.904 188.795 489.586 203.181 482.321C217.567 475.057 210.778 460.366 228.073 447.613C245.369 434.86 252.158 440.026 252.319 431.954C252.319 423.721 219.668 403.381 194.452 414.358C194.452 414.358 201.079 398.215 198.655 383.524C198.655 383.524 212.071 395.632 228.073 395.632C244.076 395.632 269.453 391.757 285.294 384.816V369.803C285.294 369.803 248.763 355.112 222.254 359.148C222.254 359.148 194.129 316.045 170.368 317.175C170.368 317.175 168.105 326.861 159.7 326.7C151.294 326.054 138.687 320.243 138.687 320.243Z" fill="#DAEAEF"/>
<path d="M141.758 365.282C141.758 365.282 154.366 442.447 132.059 475.218" stroke="#C1DAE0" stroke-width="0.5407" stroke-miterlimit="10" stroke-linecap="round" stroke-linejoin="round"/>
<path d="M198.816 383.363C198.816 383.363 196.392 340.422 182.653 328.96" stroke="#C1DAE0" stroke-width="0.5407" stroke-miterlimit="10" stroke-linecap="round" stroke-linejoin="round"/>
<path d="M163.902 325.57C163.902 325.57 192.997 357.695 174.732 420.17" stroke="#C1DAE0" stroke-width="0.5407" stroke-miterlimit="10" stroke-linecap="round" stroke-linejoin="round"/>
<path d="M229.366 443.577C229.366 443.577 211.101 417.909 174.247 433.246" stroke="#C1DAE0" stroke-width="0.5407" stroke-miterlimit="10" stroke-linecap="round" stroke-linejoin="round"/>
<path d="M154.689 352.529L152.426 345.265C152.264 344.78 151.779 344.619 151.456 344.78C150.971 344.942 150.81 345.426 150.971 345.749L153.234 353.013C153.719 352.852 154.204 352.691 154.689 352.529Z" fill="#76C7E4"/>
<path d="M156.952 351.722C157.437 351.561 157.76 351.561 158.083 351.399L156.79 347.202C156.629 346.718 156.144 346.556 155.82 346.718C155.335 346.879 155.174 347.363 155.335 347.686L156.629 352.045C156.79 351.883 156.79 351.722 156.952 351.722Z" fill="#0B2E4E"/>
<path d="M165.68 350.592C165.68 350.592 155.497 350.431 149.355 354.951" stroke="#C1DAE0" stroke-width="0.5407" stroke-miterlimit="10" stroke-linecap="round" stroke-linejoin="round"/>
</g>
<defs>
<clipPath id="clip0">
<rect width="702" height="640" fill="white"/>
</clipPath>
</defs>
</svg>
