<svg width="31" height="30" viewBox="0 0 31 30" fill="#000" xmlns="http://www.w3.org/2000/svg">
<path d="M15.9851 0C7.70511 0 0.985107 6.72 0.985107 15C0.985107 23.28 7.70511 30 15.9851 30C24.2651 30 30.9851 23.28 30.9851 15C30.9851 6.72 24.2651 0 15.9851 0ZM21.4001 9.51C23.0051 9.51 24.2951 10.8 24.2951 12.405C24.2951 14.01 23.0051 15.3 21.4001 15.3C19.7951 15.3 18.5051 14.01 18.5051 12.405C18.4901 10.8 19.7951 9.51 21.4001 9.51ZM12.4001 7.14C14.3501 7.14 15.9401 8.73 15.9401 10.68C15.9401 12.63 14.3501 14.22 12.4001 14.22C10.4501 14.22 8.86011 12.63 8.86011 10.68C8.86011 8.715 10.4351 7.14 12.4001 7.14ZM12.4001 20.835V26.46C8.80011 25.335 5.95011 22.56 4.69011 19.02C6.26511 17.34 10.1951 16.485 12.4001 16.485C13.1951 16.485 14.2001 16.605 15.2501 16.815C12.7901 18.12 12.4001 19.845 12.4001 20.835ZM15.9851 27C15.5801 27 15.1901 26.985 14.8001 26.94V20.835C14.8001 18.705 19.2101 17.64 21.4001 17.64C23.0051 17.64 25.7801 18.225 27.1601 19.365C25.4051 23.82 21.0701 27 15.9851 27Z" fill="#C1DAE0"/>
</svg>
