<svg width="36" height="36" viewBox="0 0 36 36" fill="none" xmlns="http://www.w3.org/2000/svg">
<g clip-path="url(#clip0)">
<path d="M21.75 36C21.2505 36 20.781 35.751 20.502 35.3325L17.9475 31.5H15C14.172 31.5 13.5 30.828 13.5 30C13.5 29.172 14.172 28.5 15 28.5H18.75C19.251 28.5 19.719 28.7505 19.998 29.1675L21.564 31.5165L24.9075 24.828C25.1535 24.339 25.644 24.021 26.1915 24C26.7735 23.9865 27.2535 24.258 27.5355 24.726L31.599 31.5H34.5C35.328 31.5 36 32.172 36 33C36 33.828 35.328 34.5 34.5 34.5H30.75C30.2235 34.5 29.7345 34.224 29.4645 33.7725L26.37 28.6155L23.0925 35.172C22.8525 35.6505 22.377 35.9655 21.843 35.9985C21.813 36 21.7815 36 21.75 36Z" fill="#C1DAE0"/>
<path d="M13.5 15C17.6421 15 21 11.6421 21 7.5C21 3.35786 17.6421 0 13.5 0C9.35786 0 6 3.35786 6 7.5C6 11.6421 9.35786 15 13.5 15Z" fill="#C1DAE0"/>
<path d="M10.5 30C10.5 27.519 12.519 25.5 15 25.5H18.75C19.5285 25.5 20.2785 25.6995 20.937 26.0655L22.2255 23.487C22.881 22.1805 24.129 21.324 25.5465 21.096C24.1815 19.2285 21.9915 18 19.5 18H7.5C3.3585 18 0 21.3585 0 25.5V30.375C0 30.996 0.504 31.5 1.125 31.5H10.776C10.608 31.029 10.5 30.528 10.5 30Z" fill="#C1DAE0"/>
</g>
<defs>
<clipPath id="clip0">
<rect width="36" height="36" fill="white"/>
</clipPath>
</defs>
</svg>
